<svg width="64" height="90" viewBox="0 0 64 90" fill="none" xmlns="http://www.w3.org/2000/svg">
<g id="Isolation_Mode" clip-path="url(#clip0_22_4497)">
<path id="Vector" d="M11.7874 46.9275C11.7874 46.9275 14.2275 16.5279 19.3478 13.6155C24.4682 10.7031 27.4175 43.72 27.4175 43.72L22.1626 61.9559L14.4772 65.9153L11.7874 46.9275Z" fill="#126180"/>
<path id="Vector_2" d="M14.0067 66.8097L11.1919 46.9462V46.8796C11.4417 43.7292 13.8049 16.0803 19.0502 13.0823C19.3154 12.9186 19.6199 12.8278 19.9323 12.8195C20.2447 12.8111 20.5537 12.8854 20.8274 13.0347C25.3618 15.3665 27.7539 40.7597 28.0132 43.6531V43.7578L22.6623 62.3459L14.0067 66.8097ZM12.3927 46.9082L14.9577 64.9918L21.6824 61.5368L26.8316 43.6531C25.871 32.5745 23.2867 15.633 20.2991 14.0911C20.2056 14.0328 20.0973 14.0019 19.9868 14.0019C19.8764 14.0019 19.7681 14.0328 19.6746 14.0911C15.6782 16.3849 13.0748 38.485 12.3927 46.9082Z" fill="#16110D"/>
<path id="Vector_3" d="M20.7255 13.9488L14.0347 26.4316L14.8237 26.8468L21.5146 14.3639L20.7255 13.9488Z" fill="#16110D"/>
<path id="Vector_4" d="M22.2004 16.938L12.6655 34.7568L13.4634 35.1759L22.9983 17.3571L22.2004 16.938Z" fill="#16110D"/>
<path id="Vector_5" d="M23.3748 20.596L14.3796 37.4487L15.1695 37.8625L24.1646 21.0098L23.3748 20.596Z" fill="#16110D"/>
<path id="Vector_6" d="M24.5393 24.1907L16.657 38.8594L17.4456 39.2753L25.328 24.6067L24.5393 24.1907Z" fill="#16110D"/>
<path id="Vector_7" d="M24.7434 29.6211L19.0867 40.1479L19.8753 40.5639L25.532 30.0371L24.7434 29.6211Z" fill="#16110D"/>
<path id="Vector_8" d="M23.9028 37.4644L21.3943 42.0283L22.1789 42.4516L24.6874 37.8877L23.9028 37.4644Z" fill="#16110D"/>
<path id="Vector_9" d="M42.4041 9.57983C42.798 7.28607 43.1823 4.92568 43.1823 4.92568L37.7449 1.48979C37.6194 1.43725 37.4975 1.37686 37.3798 1.30896C36.9452 1.12934 36.4727 1.05796 36.0038 1.1011C35.5349 1.14424 35.0838 1.30057 34.6899 1.55642C23.6806 7.85713 22.5278 63.4215 22.5278 63.4215C22.5278 63.4215 22.2492 60.1759 21.6152 55.9691L21.9995 55.2458L20.2799 40.8645L17.5131 39.1609C16.7158 38.6659 15.976 38.0949 15.1979 37.5714C14.718 37.2248 14.1394 37.0381 13.5455 37.0381C12.9517 37.0381 12.3731 37.2248 11.8932 37.5714C3.83314 42.4825 0.624512 80.5533 0.624512 80.5533L6.38855 84.1129L11.7203 74.2621L48.5236 53.4183C48.5236 53.4183 47.1114 24.3989 42.4041 9.57983Z" fill="#126180"/>
<path id="Vector_10" d="M33.3258 51.0486L48.5236 42.0449C47.563 32.4796 46.0259 20.0209 43.4321 11.8547C43.826 9.56098 44.2102 7.20058 44.2102 7.20058L38.7728 3.7647C38.6474 3.71216 38.5254 3.65176 38.4078 3.58387C37.9731 3.40424 37.5007 3.33286 37.0317 3.376C36.5628 3.41914 36.1117 3.57548 35.7179 3.83132C29.1661 7.58129 26.1112 28.7677 24.699 45.3285L33.3258 51.0486Z" fill="#FFEECC"/>
<path id="Vector_11" d="M8.78067 79.9441L20.9524 51.7622L21.9803 49.0497L21.279 43.1678L18.5123 41.4641C17.7149 40.9692 16.9752 40.3981 16.1971 39.8746C15.7171 39.5281 15.1386 39.3413 14.5447 39.3413C13.9508 39.3413 13.3723 39.5281 12.8923 39.8746C6.965 43.4723 3.66989 64.9252 2.32495 76.0419L8.78067 79.9441Z" fill="#FFEECC"/>
<path id="Vector_12" d="M6.39808 84.7793L0 80.8294V80.4677C0.134494 78.9068 3.32393 42.1019 11.5281 37.0861C12.1055 36.6817 12.7952 36.4646 13.5023 36.4646C14.2094 36.4646 14.8991 36.6817 15.4764 37.0861C15.7646 37.2764 16.0432 37.4763 16.3218 37.6762C16.7926 38.0093 17.2825 38.3519 17.7724 38.6279L20.7793 40.4839L22.2876 53.0758C23.2483 36.5816 26.0342 5.73477 34.3344 0.985436C34.8101 0.684871 35.3521 0.50279 35.9142 0.454727C36.4762 0.406664 37.0417 0.494053 37.5623 0.709429L37.9082 0.890268L43.7778 4.58312L43.7106 4.96384C43.7106 4.96384 43.3455 7.22905 42.9613 9.48475C47.6013 24.2467 49.0423 53.0377 49.0615 53.3328V53.6945L12.1237 74.6334L6.82078 84.4652L6.39808 84.7793ZM1.25848 80.2012L6.18673 83.2374L11.2975 73.7958L47.8991 53.0853C47.7166 49.6875 46.1795 23.4472 41.8277 9.76075V9.618V9.47524C42.1255 7.75253 42.4233 5.98224 42.5482 5.22082L37.4662 2.01335L37.1108 1.823C36.7651 1.6977 36.3945 1.6548 36.029 1.6978C35.6635 1.74079 35.3133 1.86845 35.0069 2.07045C24.4395 8.13323 23.1522 62.9076 23.1426 63.4596H21.9514C21.9514 63.4596 21.6728 60.1855 21.0387 56.0453V55.8455L21.4326 55.1221L19.7034 41.2453L17.1768 39.6939C16.6581 39.3703 16.1585 39.0182 15.659 38.666L14.8424 38.0854C14.4593 37.8027 13.9944 37.65 13.5167 37.65C13.039 37.65 12.574 37.8027 12.1909 38.0854C4.89943 42.5492 1.61393 76.318 1.25848 80.2012Z" fill="#16110D"/>
<path id="Vector_13" d="M6.41724 84.0747C6.41724 84.0747 9.61626 46.061 17.6859 41.1594C25.7556 36.2578 28.3494 67.0095 28.3494 67.0095C28.3494 67.0095 29.5022 11.4166 40.5115 5.14446C51.5208 -1.12771 54.2875 56.9778 54.2875 56.9778L6.41724 84.0747Z" fill="#126180"/>
<path id="Vector_14" d="M6.43655 84.7506L5.77368 84.3604C5.90818 82.7899 9.13604 45.6519 17.369 40.6456C17.8751 40.2956 18.4674 40.0877 19.083 40.0442C19.6986 40.0006 20.3147 40.1229 20.8658 40.3981C24.7085 42.3016 26.8989 52.2667 27.994 59.4335C28.7434 43.8911 31.3948 9.62738 40.1754 4.60204C40.7055 4.26141 41.3194 4.07073 41.951 4.05061C42.5825 4.03048 43.2076 4.18166 43.7587 4.48783C52.4912 9.24668 54.8064 54.9983 54.9025 56.9494V57.311L6.43655 84.7506ZM19.3864 41.2166C18.8894 41.2358 18.4073 41.3906 17.9934 41.664C11.0382 45.8898 7.72384 76.6796 7.11862 82.9993L53.692 56.6448C52.8755 40.2744 49.6572 9.05632 43.1823 5.52526C42.8116 5.32005 42.3906 5.22116 41.9664 5.23965C41.5422 5.25814 41.1316 5.39328 40.7806 5.62995C30.2132 11.6927 28.9547 65.8104 28.9451 66.3624L27.7154 67.0572C27.1871 60.6994 24.8334 43.7103 20.3279 41.4546C20.0387 41.2994 19.7153 41.2176 19.3864 41.2166Z" fill="#16110D"/>
<path id="Vector_15" d="M53.4806 47.489L54.4413 45.9567L49.9549 43.6819C49.9549 43.6819 49.5323 43.425 49.5227 43.4345C47.9183 42.6731 46.0162 42.6635 43.7586 43.9579C33.8925 49.5924 34.2672 63.1456 24.0168 71.2357C13.7664 79.3257 9.48181 76.5846 9.48181 76.5846L8.30981 84.8269L13.3725 87.4062L27.994 77.1271L56.8142 57.3589C56.2111 53.9213 55.0872 50.5938 53.4806 47.489Z" fill="#126180"/>
<path id="Vector_16" d="M54.6719 49.383L55.6326 47.8506L51.1463 45.5759C51.1463 45.5759 50.7236 45.3189 50.714 45.3284C49.7898 44.9152 48.7736 44.7455 47.7638 44.8355C46.754 44.9255 45.7848 45.2724 44.9499 45.8424C35.0838 51.4864 35.4585 65.0396 25.2081 73.1296C14.9578 81.2197 10.6732 78.469 10.6732 78.469L9.92383 83.9798L16.9271 82.7996L28.532 76.0325L58.1304 59.2433C57.4886 55.8019 56.3224 52.4771 54.6719 49.383Z" fill="#FFEECC"/>
<path id="Vector_17" d="M13.2572 88.0153L7.71411 85.16L9.06866 75.5757L9.85642 76.0801C9.85642 76.0801 14.0065 78.4215 23.6901 70.7692C28.5607 66.9622 30.9912 61.8131 33.2968 56.8639C35.833 51.4959 38.2347 46.3944 43.4703 43.4439C44.3877 42.8263 45.4497 42.452 46.5547 42.3571C47.6598 42.2621 48.7709 42.4495 49.782 42.9014C49.9474 42.9805 50.1078 43.0695 50.2623 43.1679L55.3058 45.7187L54.1434 47.4985C55.7225 50.5686 56.8361 53.8526 57.4481 57.2446L57.5154 57.6158L28.3398 77.6029L13.2572 88.0153ZM9.01102 84.4843L13.3725 86.7114L27.6961 76.6417L56.2089 57.0828C55.584 53.8406 54.4802 50.7073 52.933 47.784L52.7504 47.4699L53.5862 46.185L49.6955 44.2149L49.3401 44.0055H49.2728C47.6877 43.2441 45.9873 43.4059 44.0756 44.5004C39.1665 47.3557 36.8417 52.2002 34.392 57.3969C31.9423 62.5936 29.5022 67.7141 24.4106 71.7305C16.3025 78.136 11.7297 77.917 10.0005 77.4412L9.01102 84.4843Z" fill="#16110D"/>
<path id="Vector_18" d="M61.973 59.824C61.973 59.824 58.7355 40.7887 48.879 46.4231C39.0225 52.0576 39.3876 65.6203 29.1372 73.7104C18.8868 81.8004 14.6022 79.0593 14.6022 79.0593L13.4302 87.2921L61.973 59.824Z" fill="#126180"/>
<path id="Vector_19" d="M9.52993 76.5845L14.6215 79.0591L13.4207 87.4061L8.35791 84.8268L9.52993 76.5845Z" fill="#126180"/>
<path id="Vector_20" d="M13.9874 87.6725L62.6455 60.1377L62.5783 59.7285C62.5014 59.2526 60.532 47.9837 54.8929 45.3473C53.8848 44.9068 52.7804 44.7272 51.6831 44.8255C50.5858 44.9237 49.5317 45.2965 48.6197 45.9088C43.3936 48.9069 40.9919 53.9703 38.4558 59.3288C36.1021 64.278 33.6524 69.3985 28.849 73.2436C20.0877 80.1535 15.8992 78.9542 15.1499 78.6211L14.9865 78.5355L14.2276 78.0501L9.11684 75.6897L7.78149 85.1598L12.8538 87.7486L13.411 88.0341L13.9874 87.6725ZM10.0103 77.479L13.9682 79.3825L12.9787 86.4923L9.03997 84.484L10.0103 77.479ZM29.5311 74.1764C34.6227 70.1599 37.1012 64.9061 39.5029 59.8332C41.9046 54.7603 44.3063 49.7444 49.1961 46.9367C49.9392 46.42 50.8035 46.1006 51.7066 46.009C52.6097 45.9173 53.5215 46.0565 54.3549 46.4132C58.8893 48.5357 60.9163 57.5014 61.3198 59.5191L14.2468 86.1687L15.1402 79.8679C16.8214 80.3533 21.4135 80.5532 29.5311 74.1764Z" fill="#16110D"/>
<path id="Vector_21" d="M64 62.0321C64 62.0321 60.7721 42.9967 50.906 48.6311C41.0399 54.2656 41.4242 67.8188 31.1642 75.9184C20.9042 84.018 16.6292 81.2578 16.6292 81.2578L15.4668 89.5001L64 62.0321Z" fill="#16110D"/>
</g>
<defs>
<clipPath id="clip0_22_4497">
<rect width="64" height="89" fill="white" transform="translate(0 0.5)"/>
</clipPath>
</defs>
</svg>
