<svg width="112" height="88" viewBox="0 0 112 88" fill="none" xmlns="http://www.w3.org/2000/svg">
<g id="Isolation_Mode" clip-path="url(#clip0_22_2246)">
<g id="7">
<path id="Vector" d="M72.18 31.0304L70.92 15.7304C70.8652 15.3599 70.9261 14.9815 71.0943 14.6468C71.2625 14.3121 71.5299 14.0375 71.86 13.8605L73.2 13.1304C73.2983 13.0785 73.406 13.0466 73.5167 13.0366C73.6275 13.0266 73.7392 13.0387 73.8452 13.0722C73.9513 13.1057 74.0496 13.1599 74.1345 13.2317C74.2194 13.3035 74.2893 13.3914 74.34 13.4904L79.75 26.3305L72.18 31.0304Z" fill="#126180"/>
<path id="Vector_2" d="M72.2899 31.1302L71.0299 15.8202C70.9766 15.4498 71.0381 15.0719 71.2062 14.7375C71.3743 14.4032 71.6408 14.1284 71.9699 13.9502L72.2199 14.0502C72.6299 13.8302 72.9499 14.0502 73.1599 14.4402L78.3799 27.1902L72.2899 31.1302Z" fill="#FFEECC"/>
<path id="Vector_3" d="M74.5199 13.4004C74.4607 13.2745 74.3759 13.1623 74.2709 13.071C74.1658 12.9798 74.0429 12.9114 73.9099 12.8704C73.6397 12.7915 73.3495 12.8201 73.0999 12.9504L71.7599 13.6804C71.3932 13.8728 71.0952 14.1743 70.9071 14.5433C70.719 14.9123 70.6501 15.3305 70.7099 15.7404L71.9999 31.3904L79.9999 26.3904L74.5199 13.4004ZM71.6099 21.6504C71.7299 19.9104 72.0499 17.1404 72.4599 16.7304C73.0736 16.2177 73.7448 15.7781 74.4599 15.4204L74.8299 15.2204L79.4699 26.2204L72.3399 30.6604L71.6099 21.6504Z" fill="#16110D"/>
<path id="Vector_4" d="M22.1901 41.57C21.8801 41.3424 21.5169 41.1981 21.1353 41.1509C20.7536 41.1036 20.3662 41.1549 20.0101 41.3L11.0101 45.3H10.9601H10.9101C10.607 45.5168 10.363 45.8061 10.2006 46.1415C10.0381 46.4769 9.96231 46.8477 9.98008 47.22C9.99128 48.2832 10.2612 49.3278 10.7664 50.2634C11.2717 51.199 11.9971 51.9975 12.8801 52.59C13.1915 52.8231 13.5588 52.9699 13.9451 53.0155C14.3314 53.0612 14.7229 53.0041 15.0801 52.85L23.4201 47.47H23.4701C23.7757 47.2549 24.0221 46.9662 24.1864 46.6306C24.3507 46.2949 24.4276 45.9232 24.4101 45.55C24.498 44.7383 24.3316 43.9194 23.9339 43.2064C23.5362 42.4934 22.9268 41.9216 22.1901 41.57Z" fill="#126180"/>
<path id="Vector_5" d="M22.29 41.3901C21.9706 41.1633 21.6026 41.0145 21.2154 40.9554C20.8281 40.8964 20.4325 40.9288 20.06 41.05L10.89 45.1901L10.65 45.3301L10.6 45.3801C10.319 45.6302 10.0964 45.9389 9.94779 46.2845C9.79919 46.6301 9.72827 47.0041 9.74003 47.3801C9.75373 48.4802 10.0338 49.5607 10.5562 50.529C11.0787 51.4973 11.828 52.3246 12.74 52.9401C13.197 53.2359 13.7259 53.4019 14.27 53.4201C14.5096 53.4232 14.7475 53.3791 14.97 53.2901L15.16 53.2201L23.53 47.8201L23.76 47.6701C24.0445 47.4222 24.2701 47.1141 24.4206 46.7682C24.5711 46.4222 24.6426 46.0471 24.63 45.6701C24.7402 44.8012 24.5733 43.9196 24.1531 43.1511C23.733 42.3826 23.081 41.7663 22.29 41.3901ZM14.95 52.7901C14.6244 52.9292 14.2676 52.9793 13.9162 52.9354C13.5648 52.8915 13.2314 52.7551 12.95 52.5401C12.0994 51.9632 11.4013 51.1888 10.9154 50.2832C10.4295 49.3776 10.1703 48.3677 10.16 47.3401C10.1388 47.0019 10.2039 46.664 10.349 46.3579C10.4942 46.0518 10.7148 45.7876 10.99 45.5901H11.05L19.92 41.5901L20.11 41.49C20.4374 41.3537 20.7951 41.3069 21.1466 41.3543C21.498 41.4017 21.8305 41.5418 22.11 41.7601C22.8829 42.1626 23.5118 42.795 23.91 43.5701L15.54 48.3401L15.88 49.0001L24.13 44.2201C24.1943 44.5093 24.2312 44.8039 24.24 45.1001L16.09 49.8301V51.0301L15.81 52.2901L15.14 52.7201L14.95 52.7901Z" fill="#16110D"/>
<path id="Vector_6" d="M21.6102 38.3203C21.4802 38.3203 18.2702 38.3203 17.4802 40.5703C16.9975 41.7718 16.3219 42.8864 15.4802 43.8703C14.9202 44.5903 14.6402 44.9503 14.6302 45.2303C14.6245 45.3067 14.638 45.3833 14.6694 45.4532C14.7008 45.523 14.7492 45.5839 14.8102 45.6303C14.9456 45.7305 15.1119 45.7801 15.2802 45.7703C15.4148 45.7671 15.5489 45.7504 15.6802 45.7203L19.9702 43.4503C20.3887 43.2291 20.7475 42.9098 21.0157 42.5197C21.2839 42.1296 21.4535 41.6803 21.5102 41.2103L21.8702 38.3303L21.6102 38.3203Z" fill="#16110D"/>
<path id="Vector_7" d="M13.5701 53.7404L13.1001 53.1004C12.9718 53.0473 12.8481 52.9837 12.7301 52.9104C11.8964 52.3455 11.196 51.6054 10.6778 50.7418C10.1596 49.8782 9.83622 48.9119 9.73013 47.9104L9.14014 46.9904L10.4901 45.4304C10.8857 45.1214 11.3732 44.9536 11.8751 44.9536C12.377 44.9536 12.8646 45.1214 13.2601 45.4304C14.1737 46.049 14.9238 46.8798 15.4462 47.8515C15.9687 48.8233 16.248 49.9072 16.2601 51.0104C16.2783 51.433 16.1853 51.853 15.9906 52.2285C15.7958 52.6039 15.506 52.9218 15.1501 53.1504C14.9214 53.2633 14.6796 53.3473 14.4301 53.4004L13.5701 53.7404ZM9.66013 47.0304L10.1501 47.7804V47.8304C10.2416 48.7759 10.5399 49.6896 11.0238 50.507C11.5076 51.3244 12.1653 52.0254 12.9501 52.5604L13.3201 52.7504H13.3801L13.6801 53.2304L14.5101 52.9404C14.6676 52.9164 14.8198 52.8656 14.9601 52.7904C15.2559 52.5967 15.4949 52.328 15.653 52.0118C15.8111 51.6956 15.8826 51.3432 15.8601 50.9904C15.8459 49.9613 15.5829 48.9508 15.0936 48.0453C14.6043 47.1399 13.9032 46.3662 13.0501 45.7904C12.7195 45.5047 12.2971 45.3475 11.8601 45.3475C11.4232 45.3475 11.0008 45.5047 10.6701 45.7904L9.66013 47.0304Z" fill="#16110D"/>
<path id="Vector_8" d="M14.46 51.7403C14.38 53.5103 13.08 54.2003 11.55 53.2903C10.7565 52.7471 10.1052 52.0211 9.651 51.1736C9.19678 50.326 8.95291 49.3818 8.93994 48.4203C9.01994 46.6503 10.3199 45.9603 11.8399 46.8803C12.6387 47.4165 13.2947 48.1393 13.7512 48.9861C14.2077 49.833 14.451 50.7783 14.46 51.7403Z" fill="#126180"/>
<path id="Vector_9" d="M13.9403 51.0304C13.8703 52.5904 12.7203 53.2004 11.3803 52.3904C10.678 51.9168 10.101 51.28 9.69867 50.5346C9.29635 49.7892 9.08075 48.9574 9.07031 48.1104C9.15031 46.5504 10.2903 45.9504 11.6303 46.7504C12.3326 47.2239 12.9096 47.8607 13.312 48.6061C13.7143 49.3515 13.9299 50.1834 13.9403 51.0304Z" fill="#FFEECC"/>
<path id="Vector_10" d="M12.8399 53.9C12.3452 53.8826 11.8646 53.7304 11.4499 53.46C10.629 52.9056 9.95338 52.162 9.48 51.2918C9.00663 50.4216 8.74938 49.4504 8.72991 48.46C8.70263 48.0677 8.781 47.6752 8.95687 47.3235C9.13274 46.9717 9.39969 46.6736 9.72991 46.46C10.0871 46.3032 10.4791 46.2429 10.8669 46.285C11.2547 46.3271 11.6247 46.4702 11.9399 46.7C12.7671 47.2599 13.4465 48.0116 13.9202 48.8909C14.3938 49.7703 14.6476 50.7513 14.6599 51.75C14.6813 52.1345 14.5999 52.5178 14.4242 52.8605C14.2484 53.2032 13.9846 53.493 13.6599 53.7C13.4077 53.8346 13.1257 53.9033 12.8399 53.9ZM10.5599 46.68C10.3438 46.676 10.1303 46.7277 9.9399 46.83C9.67938 47.0046 9.46867 47.2438 9.32842 47.5243C9.18818 47.8048 9.12323 48.1169 9.13992 48.43C9.15237 49.3553 9.38797 50.2639 9.82668 51.0787C10.2654 51.8934 10.8943 52.5903 11.6599 53.11C11.8974 53.3291 12.1971 53.4689 12.5176 53.5103C12.838 53.5517 13.1634 53.4926 13.4488 53.3411C13.7342 53.1896 13.9655 52.9533 14.1108 52.6647C14.2561 52.3761 14.3082 52.0495 14.2599 51.73C14.2459 50.8064 14.0095 49.8998 13.5709 49.0869C13.1322 48.274 12.5042 47.5788 11.7399 47.06C11.3875 46.8304 10.9801 46.6993 10.5599 46.68Z" fill="#16110D"/>
<path id="Vector_11" d="M12.1601 52.46C11.8507 52.4523 11.5495 52.3589 11.2901 52.19C10.807 51.8628 10.4101 51.4237 10.1332 50.91C9.85636 50.3964 9.70778 49.8234 9.70013 49.24C9.68011 49.007 9.7298 48.7733 9.84286 48.5685C9.95593 48.3638 10.1273 48.1973 10.3351 48.0901C10.543 47.983 10.7781 47.94 11.0104 47.9667C11.2428 47.9934 11.462 48.0885 11.6401 48.24C12.129 48.5724 12.5288 49.0199 12.8043 49.543C13.0798 50.066 13.2225 50.6488 13.2201 51.24C13.2321 51.4717 13.1819 51.7024 13.0746 51.9081C12.9673 52.1139 12.807 52.2871 12.6101 52.41C12.4659 52.4608 12.312 52.4779 12.1601 52.46Z" fill="#16110D"/>
<path id="Vector_12" d="M12.0002 13.9004L10.0002 15.0204C9.68411 15.2101 9.44116 15.5007 9.31053 15.8455C9.1799 16.1902 9.1692 16.5689 9.2802 16.9204L24.8702 61.4204L43.0402 50.4204L23.2902 30.1304L13.3702 14.2604C13.304 14.1467 13.2161 14.0471 13.1113 13.9674C13.0066 13.8877 12.8872 13.8295 12.7599 13.796C12.6327 13.7626 12.5 13.7546 12.3697 13.7725C12.2393 13.7904 12.1137 13.8339 12.0002 13.9004Z" fill="#126180"/>
<path id="Vector_13" d="M11.2903 15.8302L10.4703 16.3102C10.1502 16.4988 9.90377 16.7905 9.77116 17.1375C9.63854 17.4845 9.62766 17.8662 9.74027 18.2202L25.2903 62.7202L42.2903 52.3102L22.5803 32.0602L12.6803 16.1902C12.6141 16.0738 12.5253 15.9718 12.419 15.8903C12.3127 15.8089 12.1911 15.7496 12.0614 15.716C11.9318 15.6824 11.7968 15.6753 11.6643 15.6949C11.5318 15.7145 11.4046 15.7605 11.2903 15.8302Z" fill="#FFEECC"/>
<path id="Vector_14" d="M23.48 30.0001L13.57 14.1901C13.488 14.052 13.3796 13.9314 13.2509 13.8353C13.1222 13.7392 12.9758 13.6695 12.82 13.6301C12.5082 13.5515 12.1779 13.5981 11.9 13.7601L9.90002 14.8801C9.54063 15.0932 9.264 15.4217 9.11511 15.8121C8.96621 16.2025 8.95385 16.6318 9.08004 17.0301L24.76 61.7701L43.37 50.4701L23.48 30.0001ZM11.98 24.0701C11.73 22.6001 11.35 19.9901 11.74 19.3701C12.6398 18.4102 13.703 17.6178 14.88 17.0301L23.14 30.2401L42.69 50.3401L24.96 61.1101L11.98 24.0701Z" fill="#16110D"/>
<path id="Vector_15" d="M60.3802 71.7001C60.0715 71.4699 59.7081 71.3239 59.3259 71.2766C58.9437 71.2293 58.5558 71.2821 58.2002 71.4301L49.2002 75.4301H49.1402C48.8404 75.6471 48.5993 75.9353 48.4387 76.2688C48.2781 76.6022 48.203 76.9704 48.2202 77.3401C48.2278 78.4043 48.495 79.4506 48.9987 80.3882C49.5023 81.3257 50.2271 82.1262 51.1102 82.7201C51.4235 82.9532 51.7926 83.0998 52.1804 83.1455C52.5683 83.1911 52.9613 83.1341 53.3202 82.9801L61.6602 77.6001C61.9684 77.3846 62.2172 77.0947 62.3833 76.7572C62.5494 76.4198 62.6274 76.0458 62.6102 75.6701C62.6951 74.859 62.5262 74.0414 62.1268 73.3303C61.7273 72.6193 61.1171 72.0497 60.3802 71.7001Z" fill="#126180"/>
<path id="Vector_16" d="M60.4802 71.5203C60.164 71.3028 59.8026 71.1601 59.4232 71.1029C59.0438 71.0458 58.6563 71.0757 58.2902 71.1903L49.1201 75.3303L48.8802 75.4703L48.8302 75.5203C48.547 75.7686 48.3228 76.0771 48.174 76.4231C48.0253 76.7691 47.9556 77.1439 47.9702 77.5203C47.9814 78.6223 48.2604 79.7052 48.783 80.6755C49.3056 81.6458 50.0562 82.4745 50.9702 83.0903C51.4243 83.3845 51.9495 83.5503 52.4902 83.5703C52.7294 83.5692 52.9665 83.5252 53.1902 83.4403L53.3902 83.3703L61.7602 77.9703L61.9902 77.8203C62.2717 77.5707 62.4947 77.262 62.6433 76.9163C62.792 76.5706 62.8626 76.1964 62.8502 75.8203C62.964 74.9447 62.7955 74.0556 62.3693 73.2822C61.9431 72.5089 61.2813 71.8917 60.4802 71.5203ZM53.1402 82.9203C52.8137 83.0581 52.4564 83.1065 52.105 83.0609C51.7536 83.0152 51.4206 82.877 51.1402 82.6603C50.2873 82.0874 49.5867 81.3155 49.0989 80.4113C48.611 79.5071 48.3506 78.4977 48.3401 77.4703C48.3253 77.1331 48.3932 76.7973 48.5379 76.4923C48.6825 76.1872 48.8996 75.9222 49.1702 75.7203H49.2402L58.1002 71.7203L58.2902 71.6203C58.6175 71.484 58.9753 71.4371 59.3267 71.4846C59.6782 71.532 60.0107 71.6721 60.2902 71.8903C61.0675 72.2901 61.7004 72.923 62.1002 73.7003L53.7302 78.4703L54.0702 79.1303L62.3202 74.3503C62.3809 74.6399 62.4144 74.9345 62.4202 75.2303L54.2902 79.9503V81.1903L54.0102 82.4503L53.3302 82.8803L53.1402 82.9203Z" fill="#16110D"/>
<path id="Vector_17" d="M59.8003 68.4504C59.6603 68.4504 56.4603 68.4504 55.6703 70.7004C55.1824 71.8963 54.5073 73.0068 53.6703 73.9904C53.1003 74.7104 52.8303 75.0704 52.8203 75.3504C52.8144 75.4259 52.8267 75.5016 52.8563 75.5713C52.8859 75.6409 52.9319 75.7024 52.9903 75.7504C53.1258 75.8507 53.2921 75.9002 53.4603 75.8904C53.596 75.8919 53.731 75.8717 53.8603 75.8304L58.1503 73.5704C58.5671 73.3459 58.9248 73.0258 59.1942 72.6365C59.4636 72.2472 59.637 71.7996 59.7003 71.3304L60.0603 68.4404L59.8003 68.4504Z" fill="#16110D"/>
<path id="Vector_18" d="M51.7601 83.8702L51.2901 83.1902L50.9301 83.0002C50.0963 82.4353 49.3959 81.6953 48.8777 80.8317C48.3596 79.9681 48.0362 79.0018 47.9301 78.0002L47.3301 77.0803L48.6801 75.5202C49.0756 75.2113 49.5631 75.0435 50.0651 75.0435C50.567 75.0435 51.0545 75.2113 51.4501 75.5202C52.3667 76.1358 53.1191 76.9658 53.6419 77.9383C54.1647 78.9108 54.4422 79.9962 54.4501 81.1003C54.4703 81.5221 54.3793 81.9418 54.1862 82.3174C53.9932 82.6929 53.7048 83.0112 53.3501 83.2402C53.1179 83.3532 52.8727 83.4371 52.6201 83.4902L51.7601 83.8702ZM47.8501 77.1902L48.3301 77.9402V78.0002C48.4185 78.944 48.7144 79.8566 49.1967 80.6725C49.6791 81.4885 50.3359 82.1878 51.1201 82.7202C51.2425 82.7947 51.3694 82.8615 51.5001 82.9203L51.8101 83.3903L52.6301 83.1103C52.79 83.0784 52.9448 83.0245 53.0901 82.9503C53.3824 82.7562 53.6185 82.4886 53.7747 82.1744C53.931 81.8602 54.0018 81.5105 53.9801 81.1602C53.9703 80.13 53.7103 79.1175 53.2226 78.21C52.7348 77.3024 52.0339 76.5269 51.1801 75.9503C50.8485 75.6665 50.4265 75.5105 49.9901 75.5105C49.5537 75.5105 49.1316 75.6665 48.8001 75.9503L47.8501 77.1902Z" fill="#16110D"/>
<path id="Vector_19" d="M52.6501 81.8701C52.5701 83.6401 51.2601 84.3301 49.7401 83.4101C48.9408 82.8745 48.2843 82.1519 47.8277 81.3049C47.3711 80.4579 47.1282 79.5123 47.1201 78.5501C47.2001 76.7801 48.5001 76.0902 50.0301 77.0102C50.8282 77.547 51.4838 78.2699 51.9402 79.1166C52.3967 79.9633 52.6403 80.9083 52.6501 81.8701Z" fill="#126180"/>
<path id="Vector_20" d="M52.1202 81.19C52.0502 82.74 50.9102 83.35 49.5602 82.55C48.8598 82.0753 48.2847 81.4381 47.8842 80.6927C47.4837 79.9474 47.2696 79.1161 47.2603 78.27C47.3303 76.71 48.4703 76.1001 49.8203 76.9101C50.5213 77.3841 51.0968 78.0213 51.4974 78.7667C51.898 79.5122 52.1118 80.3438 52.1202 81.19Z" fill="#FFEECC"/>
<path id="Vector_21" d="M51.0199 84.0303C50.5254 84.0114 50.0452 83.8594 49.6299 83.5903C48.8096 83.0353 48.1344 82.2915 47.6611 81.4215C47.1878 80.5514 46.9302 79.5805 46.9099 78.5903C46.8852 78.2062 46.9719 77.8231 47.1595 77.487C47.3471 77.1509 47.6278 76.8761 47.9677 76.6956C48.3077 76.515 48.6925 76.4364 49.0761 76.4692C49.4596 76.5019 49.8255 76.6447 50.1299 76.8803C50.9601 77.4371 51.6418 78.1881 52.1158 79.0682C52.5899 79.9482 52.8418 80.9307 52.8499 81.9303C52.8692 82.3145 52.7869 82.6971 52.6113 83.0394C52.4358 83.3817 52.1732 83.6717 51.8499 83.8803C51.5897 83.9976 51.3047 84.0491 51.0199 84.0303ZM48.7399 76.8103C48.5241 76.8089 48.3112 76.8604 48.1199 76.9603C47.8575 77.1324 47.646 77.3715 47.5071 77.6528C47.3682 77.9341 47.307 78.2474 47.3299 78.5603C47.3381 79.4864 47.5719 80.3966 48.011 81.212C48.4501 82.0275 49.0812 82.7236 49.8499 83.2403C50.1034 83.4293 50.4019 83.549 50.7157 83.5876C51.0296 83.6262 51.3481 83.5823 51.6399 83.4603C51.9033 83.2887 52.1163 83.05 52.2569 82.7688C52.3975 82.4876 52.4607 82.174 52.4399 81.8603C52.4317 80.9342 52.1979 80.024 51.7588 79.2086C51.3197 78.3931 50.6885 77.697 49.9199 77.1803C49.5669 76.9534 49.1593 76.8256 48.7399 76.8103Z" fill="#16110D"/>
<path id="Vector_22" d="M50.3399 82.5901C50.048 82.5799 49.7644 82.49 49.52 82.3301C49.0356 82.0042 48.6377 81.5653 48.3607 81.0514C48.0837 80.5374 47.9359 79.9639 47.93 79.3801C47.918 79.1484 47.9682 78.9177 48.0755 78.7119C48.1827 78.5062 48.3431 78.3329 48.5399 78.2101C48.7527 78.1147 48.9869 78.0775 49.2188 78.1021C49.4507 78.1267 49.6719 78.2122 49.86 78.3501C50.3437 78.6766 50.7411 79.1156 51.018 79.6294C51.2949 80.1432 51.4431 80.7164 51.4499 81.3001C51.4588 81.5313 51.4072 81.7609 51.3003 81.966C51.1933 82.1712 51.0346 82.345 50.8399 82.4701C50.6856 82.5505 50.5139 82.5917 50.3399 82.5901Z" fill="#16110D"/>
<path id="Vector_23" d="M14.1701 79.9902L12.7401 80.8002V83.1703C12.7356 83.3085 12.774 83.4447 12.8501 83.5602V83.6103C12.8755 83.6341 12.9064 83.6513 12.9401 83.6602L13.2501 83.8303L13.4101 83.5602L13.7001 83.4002C13.8603 83.2864 13.9917 83.1367 14.0837 82.9631C14.1757 82.7895 14.2258 82.5967 14.2301 82.4002V81.1902L14.5601 80.1902L14.1701 79.9902Z" fill="#16110D"/>
<path id="Vector_24" d="M13.9801 83.4803L13.5901 83.7003C13.3301 83.8503 13.1201 83.7003 13.1201 83.3503V81.0303L14.4501 80.2803V82.5903C14.4491 82.7655 14.4058 82.9378 14.324 83.0928C14.2422 83.2477 14.1242 83.3806 13.9801 83.4803Z" fill="#126180"/>
<path id="Vector_25" d="M13.4001 83.8601C13.3444 83.875 13.2858 83.875 13.2301 83.8601C13.1566 83.8075 13.0984 83.7362 13.0615 83.6536C13.0246 83.571 13.0103 83.4801 13.0201 83.3901V81.0101L14.5601 80.1401V82.6401C14.5591 82.8372 14.5104 83.0311 14.4181 83.2053C14.3258 83.3794 14.1926 83.5287 14.0301 83.6401L13.6401 83.8601C13.5616 83.8824 13.4785 83.8824 13.4001 83.8601ZM13.2901 81.0901V83.3501C13.2844 83.4028 13.2904 83.4562 13.3077 83.5063C13.325 83.5564 13.3531 83.6021 13.3901 83.6401C13.4217 83.6596 13.458 83.6699 13.4951 83.6699C13.5322 83.6699 13.5685 83.6596 13.6001 83.6401L13.9901 83.4201C14.118 83.3291 14.2226 83.2092 14.2956 83.0703C14.3686 82.9313 14.4078 82.7771 14.4101 82.6201V80.4901L13.2901 81.0901Z" fill="#16110D"/>
<path id="Vector_26" d="M13.7299 85.3003L13.9599 84.7303L13.4399 84.4403H13.3699H13.3199C13.2062 84.4088 13.0859 84.4099 12.9727 84.4435C12.8595 84.4771 12.7581 84.5418 12.6799 84.6303C12.4579 84.8498 12.2933 85.1207 12.2009 85.4189C12.1085 85.7172 12.0909 86.0336 12.1499 86.3403C12.1678 86.4378 12.2055 86.5307 12.2605 86.6132C12.3155 86.6957 12.3868 86.7662 12.4699 86.8203L12.5599 86.8703L13.0199 87.1403L13.2499 86.5803C13.5553 86.2232 13.7252 85.7701 13.7299 85.3003Z" fill="#126180"/>
<path id="Vector_27" d="M14.3403 85.1902C14.3224 85.0822 14.282 84.9793 14.2217 84.8879C14.1614 84.7966 14.0826 84.719 13.9903 84.6602L13.5003 84.3702H13.4203L13.2503 84.3102C13.133 84.2946 13.0137 84.3073 12.9023 84.3473C12.791 84.3873 12.6908 84.4535 12.6103 84.5402C12.3781 84.7766 12.2061 85.0653 12.1086 85.382C12.0112 85.6987 11.9912 86.0342 12.0503 86.3602C12.0699 86.4701 12.1131 86.5744 12.177 86.6659C12.2409 86.7574 12.3239 86.834 12.4203 86.8902L12.9503 87.2102H13.0403C13.0965 87.2205 13.1541 87.2205 13.2103 87.2102C13.4144 87.202 13.6075 87.1162 13.7503 86.9702C13.9825 86.7413 14.1571 86.4607 14.2596 86.1512C14.3622 85.8418 14.3898 85.5124 14.3403 85.1902ZM12.5203 86.6802C12.4502 86.6334 12.3901 86.573 12.3438 86.5026C12.2974 86.4321 12.2656 86.3531 12.2503 86.2702C12.1951 85.9799 12.2118 85.6804 12.2989 85.398C12.3861 85.1156 12.541 84.8589 12.7503 84.6502C12.8561 84.5419 12.999 84.4776 13.1503 84.4702H13.2803H13.3403H13.3903L13.4903 84.5302C13.3648 84.5736 13.2492 84.6416 13.1503 84.7302C12.9181 84.9666 12.7461 85.2553 12.6486 85.572C12.5512 85.8887 12.5312 86.2241 12.5903 86.5502V86.6702L12.5203 86.6802Z" fill="#16110D"/>
<path id="Vector_28" d="M13.5802 86.3401C13.5476 86.3799 13.5038 86.4092 13.4545 86.4242C13.4053 86.4392 13.3526 86.4391 13.3033 86.4241C13.2541 86.4091 13.2103 86.3798 13.1777 86.3399C13.1451 86.3 13.1251 86.2514 13.1202 86.2001C13.0959 86.0635 13.1051 85.923 13.1469 85.7906C13.1887 85.6583 13.2619 85.538 13.3602 85.4401C13.3912 85.3987 13.4341 85.368 13.4833 85.352C13.5324 85.3361 13.5853 85.3358 13.6347 85.3511C13.684 85.3665 13.7274 85.3967 13.7588 85.4377C13.7902 85.4787 13.8082 85.5285 13.8102 85.5801C13.8366 85.7159 13.8295 85.8561 13.7894 85.9886C13.7493 86.121 13.6775 86.2417 13.5802 86.3401Z" fill="#FFEECC"/>
<path id="Vector_29" d="M15.1702 86.0704L15.3902 85.5004L14.8702 85.2104H14.8002C14.6858 85.1769 14.5644 85.176 14.4495 85.2078C14.3347 85.2396 14.231 85.3028 14.1502 85.3904C13.9303 85.6114 13.7672 85.8824 13.6749 86.1802C13.5826 86.478 13.5638 86.7937 13.6202 87.1004C13.6381 87.1992 13.6768 87.293 13.7337 87.3758C13.7906 87.4585 13.8644 87.5283 13.9502 87.5804L14.0302 87.6404L14.5002 87.9004L14.7202 87.3404C15.0125 86.9818 15.1716 86.533 15.1702 86.0704Z" fill="#126180"/>
<path id="Vector_30" d="M15.77 85.9401C15.751 85.8325 15.7101 85.73 15.6499 85.6389C15.5897 85.5477 15.5115 85.4698 15.42 85.4101L14.93 85.1301L14.85 85.0801L14.69 85.0201C14.5714 85.0075 14.4514 85.0217 14.339 85.0614C14.2265 85.1012 14.1244 85.1657 14.04 85.2501C13.8078 85.4865 13.6358 85.7752 13.5383 86.0919C13.4409 86.4086 13.4209 86.744 13.48 87.0701C13.5024 87.1803 13.5467 87.2849 13.6102 87.3776C13.6738 87.4704 13.7553 87.5494 13.85 87.6101L14.39 87.9201H14.48C14.5363 87.9296 14.5937 87.9296 14.65 87.9201C14.8575 87.906 15.053 87.8172 15.2 87.6701C15.4252 87.4474 15.5943 87.1745 15.6934 86.8737C15.7925 86.573 15.8188 86.253 15.77 85.9401ZM13.95 87.4301C13.8802 87.3829 13.8205 87.3224 13.7741 87.252C13.7278 87.1816 13.6958 87.1028 13.68 87.0201C13.6282 86.7313 13.6466 86.4343 13.7336 86.1541C13.8206 85.8739 13.9737 85.6187 14.18 85.4101C14.2873 85.2966 14.4341 85.2286 14.59 85.2201H14.72H14.77L14.88 85.2801C14.7537 85.3265 14.6381 85.3979 14.54 85.4901C14.3043 85.722 14.1298 86.0087 14.0321 86.3246C13.9344 86.6404 13.9165 86.9756 13.98 87.3001C13.9757 87.34 13.9757 87.3802 13.98 87.4201L13.95 87.4301Z" fill="#16110D"/>
<path id="Vector_31" d="M15.0101 87.1101C14.9791 87.1515 14.9361 87.1822 14.887 87.1982C14.8378 87.2141 14.785 87.2144 14.7356 87.1991C14.6863 87.1837 14.6429 87.1535 14.6115 87.1125C14.5801 87.0715 14.5621 87.0217 14.5601 86.9701C14.5336 86.8343 14.5408 86.6941 14.5809 86.5616C14.621 86.4292 14.6928 86.3085 14.7901 86.2101C14.821 86.1687 14.864 86.138 14.9132 86.122C14.9623 86.1061 15.0152 86.1058 15.0645 86.1212C15.1139 86.1365 15.1572 86.1668 15.1887 86.2078C15.2201 86.2488 15.2381 86.2985 15.2401 86.3501C15.2665 86.486 15.2594 86.6262 15.2193 86.7586C15.1792 86.8911 15.1074 87.0117 15.0101 87.1101Z" fill="#FFEECC"/>
<path id="Vector_32" d="M14.9802 84.4803L14.4502 84.4303L14.3401 84.3603C14.2719 84.326 14.1965 84.3081 14.1201 84.3081C14.0438 84.3081 13.9684 84.326 13.9001 84.3603L13.6201 84.5103L12.9302 84.5903V85.0103C12.9384 85.0476 12.9542 85.0828 12.9766 85.1137C12.9989 85.1447 13.0274 85.1707 13.0602 85.1903L13.5802 85.4903C13.6543 85.5388 13.7416 85.5633 13.8302 85.5603C13.8926 85.5751 13.9577 85.5751 14.0202 85.5603L14.8401 85.1203C14.8807 85.1017 14.9153 85.0722 14.94 85.0352C14.9647 84.9981 14.9786 84.9548 14.9802 84.9103V84.5603V84.4803Z" fill="#16110D"/>
<path id="Vector_33" d="M13.0999 84.5102L13.9399 84.0702C13.9925 84.043 14.0508 84.0288 14.1099 84.0288C14.1691 84.0288 14.2274 84.043 14.2799 84.0702L14.7899 84.3702C14.8899 84.4302 14.8999 84.5202 14.7899 84.5702L13.9499 85.0102C13.8974 85.0374 13.8391 85.0515 13.7799 85.0515C13.7208 85.0515 13.6625 85.0374 13.6099 85.0102L13.0999 84.7102C13.0199 84.6502 13.0099 84.5602 13.0999 84.5102Z" fill="#126180"/>
<path id="Vector_34" d="M13.83 85.1904C13.742 85.1886 13.656 85.1645 13.58 85.1204L13.0699 84.8204C13.0319 84.7997 13 84.7694 12.9772 84.7326C12.9544 84.6958 12.9416 84.6537 12.9399 84.6104C12.9415 84.5749 12.9525 84.5404 12.9718 84.5105C12.9912 84.4806 13.0182 84.4564 13.05 84.4404L13.8999 84.0004C13.9656 83.9636 14.0397 83.9443 14.115 83.9443C14.1902 83.9443 14.2643 83.9636 14.33 84.0004L14.8499 84.3104C14.8872 84.3295 14.9188 84.358 14.9416 84.3931C14.9644 84.4282 14.9776 84.4687 14.9799 84.5104C14.9764 84.5468 14.9635 84.5815 14.9425 84.6113C14.9214 84.6411 14.893 84.665 14.86 84.6804L14.02 85.1204C13.9635 85.1593 13.8981 85.1833 13.83 85.1904ZM13.1499 84.6204L13.67 84.9204C13.7052 84.9397 13.7448 84.9498 13.7849 84.9498C13.8251 84.9498 13.8647 84.9397 13.8999 84.9204L14.74 84.4804L14.2299 84.1804C14.1947 84.1612 14.1551 84.1511 14.115 84.1511C14.0748 84.1511 14.0352 84.1612 13.9999 84.1804L13.1499 84.6204Z" fill="#16110D"/>
<path id="Vector_35" d="M13.9102 84.7003C13.88 84.7003 13.85 84.6944 13.8221 84.6828C13.7942 84.6713 13.7689 84.6543 13.7475 84.633C13.7262 84.6116 13.7092 84.5863 13.6977 84.5583C13.6861 84.5304 13.6802 84.5005 13.6802 84.4703V81.3203C13.6802 81.2901 13.6861 81.2602 13.6977 81.2323C13.7092 81.2044 13.7262 81.1791 13.7475 81.1577C13.7689 81.1364 13.7942 81.1194 13.8221 81.1078C13.85 81.0963 13.88 81.0903 13.9102 81.0903C13.9704 81.0928 14.0275 81.1178 14.0701 81.1604C14.1127 81.203 14.1377 81.2601 14.1402 81.3203V84.4703C14.1402 84.5313 14.1159 84.5898 14.0728 84.633C14.0297 84.6761 13.9712 84.7003 13.9102 84.7003Z" fill="#126180"/>
<path id="Vector_36" d="M13.9101 84.8002C13.8225 84.8002 13.7386 84.7655 13.6767 84.7036C13.6148 84.6417 13.5801 84.5578 13.5801 84.4702V81.3203C13.5801 81.2327 13.6148 81.1488 13.6767 81.0869C13.7386 81.025 13.8225 80.9902 13.9101 80.9902C13.9976 80.9902 14.0815 81.025 14.1434 81.0869C14.2053 81.1488 14.2401 81.2327 14.2401 81.3203V84.4702C14.2401 84.5136 14.2315 84.5565 14.2149 84.5965C14.1984 84.6366 14.174 84.6729 14.1434 84.7036C14.1128 84.7342 14.0764 84.7585 14.0363 84.7751C13.9963 84.7917 13.9534 84.8002 13.9101 84.8002ZM13.9101 81.2003C13.8782 81.2003 13.8477 81.2129 13.8252 81.2354C13.8027 81.2579 13.7901 81.2884 13.7901 81.3203V84.4702C13.7901 84.5021 13.8027 84.5326 13.8252 84.5551C13.8477 84.5776 13.8782 84.5902 13.9101 84.5902C13.9419 84.5902 13.9724 84.5776 13.9949 84.5551C14.0174 84.5326 14.0301 84.5021 14.0301 84.4702V81.3203C14.0314 81.3037 14.0294 81.287 14.024 81.2712C14.0186 81.2555 14.0099 81.2411 13.9987 81.2289C13.9874 81.2166 13.9737 81.2069 13.9584 81.2002C13.9432 81.1936 13.9267 81.1902 13.9101 81.1902V81.2003Z" fill="#16110D"/>
<path id="Vector_37" d="M15.1103 80.4702L13.6803 81.2802V83.6502C13.6744 83.7886 13.713 83.9253 13.7902 84.0402C13.8156 84.0641 13.8466 84.0813 13.8802 84.0902L14.1902 84.2702L14.3502 83.9902L14.6403 83.8302C14.8016 83.7176 14.9338 83.5681 15.026 83.3942C15.1182 83.2203 15.1676 83.027 15.1703 82.8302V81.6102L15.5002 80.6102L15.1103 80.4702Z" fill="#16110D"/>
<path id="Vector_38" d="M14.9201 83.9602L14.5301 84.1902C14.2701 84.3302 14.0601 84.1903 14.0601 83.8303V81.5103L15.4001 80.7603V83.0803C15.3939 83.2541 15.3473 83.4242 15.264 83.5769C15.1807 83.7297 15.0629 83.8609 14.9201 83.9602Z" fill="#126180"/>
<path id="Vector_39" d="M14.34 84.3401C14.2843 84.355 14.2257 84.355 14.17 84.3401C14.0979 84.2861 14.0408 84.2146 14.0041 84.1323C13.9674 84.0501 13.9522 83.9598 13.96 83.8701V81.4901L15.5 80.6201V83.1201C15.5007 83.3175 15.4527 83.5121 15.3603 83.6865C15.2678 83.861 15.1338 84.0099 14.97 84.1201L14.58 84.3501C14.5003 84.3652 14.4182 84.3618 14.34 84.3401ZM14.19 81.5701V83.8301C14.1843 83.8829 14.1903 83.9362 14.2076 83.9863C14.2249 84.0364 14.253 84.0821 14.29 84.1201C14.3222 84.1376 14.3583 84.1468 14.395 84.1468C14.4317 84.1468 14.4678 84.1376 14.5 84.1201L14.89 83.8901C15.0165 83.8001 15.1204 83.6818 15.1933 83.5447C15.2662 83.4076 15.3061 83.2554 15.31 83.1001V80.9601L14.19 81.5701Z" fill="#16110D"/>
<path id="Vector_40" d="M9.29019 64.4602C3.50019 69.7502 -0.449807 80.3502 0.290193 82.6602C1.29019 85.7702 4.21019 84.7202 7.82019 83.8702C15.3802 82.1102 37.9702 69.7502 52.0802 61.5602C66.1902 53.3702 72.2802 50.1002 75.6302 47.5602C81.4302 43.2202 89.3402 28.0202 91.2502 23.0002C92.6502 19.3202 88.8602 19.4703 85.3302 20.8603C81.8002 22.2503 60.2902 34.1002 41.8902 44.3102C23.4902 54.5202 16.2002 58.1302 9.29019 64.4602Z" fill="#126180"/>
<path id="Vector_41" d="M78.4099 28.44C78.478 27.9778 78.4147 27.5058 78.2273 27.0779C78.0399 26.6499 77.7358 26.2833 77.3499 26.02C69.3999 30.11 56.9299 37.17 42.2699 45.3C23.8799 55.5 16.5799 59.12 9.64988 65.45C9.64988 65.45 7.07991 68.07 8.92991 69.08C10.7799 70.09 14.0299 69.63 24.8299 63.64C35.6299 57.65 70.6499 37.5 70.6499 37.5C70.6499 37.5 77.6499 33.19 78.4099 28.44Z" fill="#FFEECC"/>
<path id="Vector_42" d="M10.4599 68.62C9.8058 68.6372 9.15834 68.4856 8.57985 68.18C8.38261 68.086 8.21069 67.9461 8.07848 67.7722C7.94627 67.5982 7.8576 67.3952 7.81984 67.18C7.62984 65.92 9.17983 64.32 9.24983 64.25C15.2498 58.77 21.3998 55.38 34.8898 47.94L41.8898 44.06L52.1398 38.36C62.2398 32.73 70.9498 27.87 76.9698 24.78L77.0898 24.71L77.1998 24.8C77.6159 25.0835 77.9429 25.4792 78.143 25.9413C78.343 26.4033 78.4078 26.9126 78.3298 27.41C77.5698 32.16 70.7698 36.41 70.4798 36.62C70.1898 36.83 35.3398 56.85 24.6598 62.77C16.6698 67.19 12.7499 68.62 10.4599 68.62ZM77.0698 25.19C71.0698 28.28 62.3998 33.11 52.3698 38.7L42.1198 44.4L35.1198 48.29C21.6598 55.7 15.5198 59.09 9.56984 64.53C9.56984 64.53 8.09984 66.04 8.25984 67.1C8.28837 67.2548 8.35305 67.4007 8.44862 67.5258C8.5442 67.651 8.66795 67.7517 8.80983 67.82C10.5998 68.82 13.9499 68.24 24.5199 62.38C35.0899 56.52 69.9799 36.44 70.3298 36.24C70.3899 36.24 77.2499 31.88 77.9899 27.33C78.0498 26.9231 77.9955 26.5075 77.8331 26.1296C77.6706 25.7517 77.4064 25.4264 77.0698 25.19Z" fill="#16110D"/>
<path id="Vector_43" d="M21.9202 69.9601L21.5702 70.1701C21.2502 70.3501 20.9902 70.1701 20.9902 69.7301V68.8501C20.9925 68.6324 21.0463 68.4184 21.1471 68.2255C21.2479 68.0326 21.3929 67.8662 21.5702 67.7401L21.9302 67.5301C22.2502 67.3501 22.5102 67.5301 22.5102 67.9701V68.8501C22.5068 69.0686 22.4515 69.2832 22.3489 69.4762C22.2464 69.6691 22.0994 69.835 21.9202 69.9601Z" fill="#FFEECC"/>
<path id="Vector_44" d="M21.3402 69.6203C21.2487 69.6223 21.1585 69.598 21.0803 69.5503C20.978 69.4799 20.8962 69.3835 20.8435 69.271C20.7908 69.1585 20.769 69.034 20.7802 68.9103V68.0203C20.7833 67.7668 20.8465 67.5176 20.9647 67.2934C21.083 67.0691 21.2528 66.8761 21.4603 66.7303L21.8202 66.5303C21.9084 66.4794 22.0084 66.4526 22.1103 66.4526C22.2121 66.4526 22.3121 66.4794 22.4002 66.5303C22.5018 66.6038 22.5829 66.7022 22.6354 66.816C22.6879 66.9299 22.7103 67.0553 22.7002 67.1803V68.0703C22.6964 68.3223 22.6328 68.5698 22.5146 68.7923C22.3963 69.0149 22.2269 69.2061 22.0203 69.3503L21.6602 69.5603C21.5607 69.608 21.4503 69.6287 21.3402 69.6203ZM22.1502 66.8403C22.1072 66.8332 22.0633 66.8332 22.0203 66.8403L21.6602 67.0503C21.517 67.16 21.4004 67.3007 21.319 67.4617C21.2376 67.6227 21.1936 67.8 21.1902 67.9803V68.8703C21.1902 69.0403 21.2502 69.1303 21.2902 69.1503C21.3161 69.1653 21.3454 69.1731 21.3752 69.1731C21.4051 69.1731 21.4344 69.1653 21.4603 69.1503L21.8202 68.9503C21.9645 68.8417 22.082 68.7013 22.1635 68.54C22.245 68.3788 22.2883 68.201 22.2902 68.0203V67.1903C22.2902 67.0203 22.2402 66.9303 22.1902 66.9003L22.1502 66.8403Z" fill="#16110D"/>
<path id="Vector_45" d="M24.8101 68.2799L24.4501 68.4899C24.1401 68.6799 23.8801 68.4899 23.8701 68.0499V67.1899C23.874 66.9726 23.9284 66.7591 24.0291 66.5665C24.1298 66.3738 24.2739 66.2072 24.4501 66.08L24.8101 65.8699C25.1301 65.6899 25.3901 65.8699 25.3901 66.3099V67.1899C25.3847 67.4042 25.3295 67.6142 25.2288 67.8034C25.1281 67.9926 24.9848 68.1558 24.8101 68.2799Z" fill="#FFEECC"/>
<path id="Vector_46" d="M24.2199 67.9403C24.1315 67.9421 24.0445 67.9177 23.9699 67.8703C23.8676 67.7999 23.7859 67.7034 23.7332 67.591C23.6805 67.4785 23.6586 67.354 23.6699 67.2303V66.3403C23.6712 66.0879 23.7338 65.8395 23.8522 65.6166C23.9706 65.3936 24.1414 65.2027 24.3499 65.0603L24.6999 64.8503C24.7889 64.7965 24.8909 64.7681 24.9949 64.7681C25.0989 64.7681 25.2009 64.7965 25.2899 64.8503C25.3922 64.9208 25.4739 65.0172 25.5266 65.1297C25.5793 65.2422 25.6011 65.3666 25.5899 65.4903V66.3803C25.5852 66.6335 25.5213 66.8821 25.4032 67.1062C25.2851 67.3302 25.1162 67.5234 24.9099 67.6703L24.5499 67.8703C24.4483 67.9232 24.3342 67.9474 24.2199 67.9403ZM25.0399 65.1603C24.9973 65.1489 24.9524 65.1489 24.9099 65.1603L24.5499 65.3604C24.4072 65.4706 24.291 65.6113 24.2096 65.7722C24.1283 65.9331 24.084 66.1101 24.0799 66.2903V67.1903C24.0799 67.3603 24.0799 67.4503 24.1799 67.4803C24.2799 67.5103 24.3199 67.4803 24.3499 67.4803L24.7099 67.2703C24.8542 67.1616 24.9716 67.0213 25.0531 66.86C25.1346 66.6988 25.178 66.521 25.1799 66.3403V65.4503C25.1799 65.2803 25.1299 65.1903 25.0799 65.1603H25.0399Z" fill="#16110D"/>
<path id="Vector_47" d="M26.9803 67.0201L26.6303 67.2302C26.3103 67.4102 26.0503 67.2302 26.0503 66.7902V65.9001C26.0498 65.6845 26.1013 65.4718 26.2005 65.2803C26.2998 65.0888 26.4437 64.9241 26.6203 64.8001L26.9803 64.5901C27.3003 64.4101 27.5603 64.5901 27.5603 65.0301V65.9102C27.558 66.1278 27.5042 66.3418 27.4034 66.5347C27.3026 66.7276 27.1577 66.894 26.9803 67.0201Z" fill="#FFEECC"/>
<path id="Vector_48" d="M26.4003 66.6802C26.3087 66.6822 26.2185 66.6579 26.1403 66.6102C26.038 66.5398 25.9563 66.4433 25.9036 66.3309C25.8509 66.2184 25.829 66.0939 25.8403 65.9702V65.0802C25.8433 64.8267 25.9066 64.5775 26.0248 64.3532C26.143 64.129 26.3129 63.936 26.5203 63.7902L26.8803 63.5902C26.9678 63.5373 27.0681 63.5093 27.1703 63.5093C27.2726 63.5093 27.3729 63.5373 27.4603 63.5902C27.5645 63.6618 27.648 63.7596 27.7024 63.8737C27.7568 63.9878 27.7803 64.1142 27.7703 64.2402V65.1302C27.7665 65.3822 27.7029 65.6297 27.5846 65.8522C27.4664 66.0748 27.297 66.266 27.0903 66.4102L26.7303 66.6202C26.6277 66.6697 26.5137 66.6904 26.4003 66.6802ZM27.2103 63.9002C27.1673 63.8931 27.1234 63.8931 27.0803 63.9002L26.7303 64.1102C26.5836 64.2173 26.4638 64.3571 26.3805 64.5186C26.2972 64.68 26.2526 64.8586 26.2503 65.0402V65.9202C26.2503 66.1002 26.3103 66.1902 26.3503 66.2102C26.3767 66.2234 26.4058 66.2303 26.4353 66.2303C26.4648 66.2303 26.4939 66.2234 26.5203 66.2102L26.8803 66.0102C27.0263 65.9032 27.145 65.7631 27.2267 65.6015C27.3083 65.4399 27.3507 65.2613 27.3503 65.0802V64.1902C27.3567 64.1383 27.3519 64.0855 27.3364 64.0356C27.3209 63.9856 27.295 63.9394 27.2603 63.9002H27.2103Z" fill="#16110D"/>
<path id="Vector_49" d="M29.2203 65.7404L28.8603 65.9504C28.5403 66.1304 28.2803 65.9504 28.2803 65.5104V64.6304C28.2826 64.4127 28.3363 64.1987 28.4371 64.0058C28.5379 63.8129 28.6829 63.6465 28.8603 63.5204L29.2103 63.3104C29.5303 63.1304 29.7903 63.3104 29.7903 63.7504V64.6404C29.7876 64.8555 29.7346 65.0669 29.6357 65.2579C29.5367 65.4489 29.3944 65.6141 29.2203 65.7404Z" fill="#FFEECC"/>
<path id="Vector_50" d="M28.6301 65.4004C28.5417 65.4022 28.4547 65.3778 28.3801 65.3304C28.2781 65.259 28.1961 65.1627 28.1419 65.0507C28.0876 64.9387 28.0629 64.8147 28.0701 64.6904V63.8004C28.0747 63.5472 28.1386 63.2986 28.2567 63.0746C28.3748 62.8506 28.5438 62.6573 28.7501 62.5104L29.1101 62.3104C29.1975 62.2575 29.2978 62.2295 29.4 62.2295C29.5023 62.2295 29.6026 62.2575 29.6901 62.3104C29.795 62.3789 29.8792 62.4747 29.9339 62.5874C29.9885 62.7002 30.0114 62.8257 30.0001 62.9504V63.8404C29.9963 64.0924 29.9326 64.3399 29.8144 64.5624C29.6962 64.785 29.5267 64.9762 29.3201 65.1204L28.9601 65.3304C28.859 65.3849 28.7445 65.4091 28.6301 65.4004ZM29.4401 62.6204C29.4003 62.6147 29.3599 62.6147 29.3201 62.6204L28.9601 62.8304C28.8158 62.9391 28.6983 63.0795 28.6168 63.2408C28.5354 63.402 28.492 63.5798 28.4901 63.7604V64.6504C28.4837 64.7024 28.4884 64.7551 28.5039 64.8051C28.5194 64.8551 28.5454 64.9012 28.5801 64.9404C28.6401 64.9404 28.7201 64.9404 28.7601 64.9404L29.1101 64.7404C29.2557 64.6322 29.3746 64.4922 29.4578 64.331C29.541 64.1698 29.5862 63.9918 29.59 63.8104V62.9204C29.5958 62.8677 29.5898 62.8144 29.5725 62.7643C29.5552 62.7141 29.5271 62.6684 29.4901 62.6304L29.4401 62.6204Z" fill="#16110D"/>
<path id="Vector_51" d="M31.3902 64.48L31.0302 64.69C30.7102 64.87 30.4502 64.69 30.4502 64.25V63.36C30.454 63.1441 30.5085 62.932 30.6093 62.741C30.71 62.5499 30.8542 62.3852 31.0302 62.26L31.3902 62.05C31.7102 61.86 31.9702 62.05 31.9702 62.49V63.37C31.9663 63.5873 31.9119 63.8008 31.8112 63.9935C31.7105 64.1861 31.5664 64.3527 31.3902 64.48Z" fill="#FFEECC"/>
<path id="Vector_52" d="M30.7999 64.1901C30.7115 64.1918 30.6245 64.1675 30.5499 64.1201C30.4475 64.0473 30.366 63.949 30.3134 63.835C30.2607 63.721 30.2388 63.5952 30.2498 63.4701V62.5901C30.2487 62.3358 30.3101 62.0851 30.4287 61.8601C30.5473 61.6352 30.7194 61.4428 30.9299 61.3001L31.2798 61.0901C31.3688 61.0363 31.4709 61.0078 31.5749 61.0078C31.6789 61.0078 31.7809 61.0363 31.8698 61.0901C31.9722 61.1629 32.0537 61.2611 32.1064 61.3752C32.159 61.4892 32.1809 61.615 32.1699 61.7401V62.6301C32.1712 62.883 32.1097 63.1323 31.991 63.3557C31.8724 63.5791 31.7002 63.7696 31.4899 63.9101L31.1399 64.1201C31.0333 64.169 30.9171 64.1929 30.7999 64.1901ZM31.6198 61.4101C31.5769 61.4015 31.5328 61.4015 31.4899 61.4101L31.1299 61.6201C30.9866 61.7298 30.87 61.8704 30.7886 62.0314C30.7073 62.1924 30.6632 62.3697 30.6599 62.5501V63.4301C30.6599 63.6101 30.7099 63.7001 30.7599 63.7201C30.7857 63.735 30.815 63.7429 30.8449 63.7429C30.8747 63.7429 30.904 63.735 30.9299 63.7201L31.2899 63.5101C31.4334 63.403 31.5504 63.2643 31.6319 63.1048C31.7134 62.9453 31.7572 62.7692 31.7599 62.5901V61.7001C31.7599 61.5301 31.7099 61.4401 31.6599 61.4101H31.6198Z" fill="#16110D"/>
<path id="Vector_53" d="M33.6199 63.1901L33.27 63.4001C32.95 63.5801 32.6899 63.4 32.6899 62.96V62.0701C32.6894 61.8544 32.7409 61.6417 32.8402 61.4502C32.9394 61.2587 33.0834 61.094 33.26 60.9701L33.6199 60.7601C33.9399 60.5801 34.2 60.7601 34.2 61.2001V62.0801C34.1977 62.2977 34.1439 62.5117 34.0431 62.7046C33.9423 62.8976 33.7973 63.0639 33.6199 63.1901Z" fill="#FFEECC"/>
<path id="Vector_54" d="M33.0403 62.8603C32.9518 62.8633 32.8645 62.8388 32.7903 62.7903C32.6854 62.7218 32.6012 62.6261 32.5465 62.5133C32.4919 62.4006 32.4691 62.2751 32.4804 62.1503V61.2603C32.4834 61.0068 32.5466 60.7576 32.6648 60.5333C32.7831 60.309 32.9529 60.1161 33.1603 59.9703L33.5204 59.7603C33.6085 59.7094 33.7085 59.6826 33.8103 59.6826C33.9121 59.6826 34.0122 59.7094 34.1003 59.7603C34.2061 59.8304 34.2907 59.9279 34.3453 60.0424C34.3999 60.1569 34.4224 60.284 34.4103 60.4103V61.3003C34.4065 61.5523 34.3429 61.7998 34.2247 62.0223C34.1064 62.2449 33.937 62.4361 33.7304 62.5803L33.3703 62.7903C33.2687 62.8432 33.1547 62.8674 33.0403 62.8603ZM33.8503 60.0803C33.8073 60.0732 33.7634 60.0732 33.7203 60.0803L33.3703 60.2903C33.2236 60.3974 33.1039 60.5372 33.0206 60.6986C32.9373 60.8601 32.8927 61.0387 32.8904 61.2203V62.1903C32.8904 62.3703 32.9504 62.4603 32.9904 62.4803C33.0162 62.4952 33.0455 62.5031 33.0754 62.5031C33.1052 62.5031 33.1345 62.4952 33.1603 62.4803L33.5204 62.2803C33.6664 62.1732 33.7851 62.0332 33.8667 61.8716C33.9484 61.71 33.9908 61.5314 33.9904 61.3503V60.4603C33.9967 60.4083 33.992 60.3557 33.9765 60.3057C33.961 60.2557 33.935 60.2095 33.9003 60.1703L33.8503 60.0803Z" fill="#16110D"/>
<path id="Vector_55" d="M35.8004 61.9401L35.4403 62.1501C35.1203 62.3301 34.8604 62.1501 34.8604 61.7101V60.8201C34.865 60.6029 34.9197 60.3897 35.0204 60.1972C35.121 60.0047 35.2647 59.8379 35.4403 59.7101L35.7903 59.5101C36.1103 59.3201 36.3703 59.5101 36.3703 59.9401V60.8301C36.3708 61.0472 36.3193 61.2612 36.2202 61.4543C36.121 61.6475 35.9771 61.814 35.8004 61.9401Z" fill="#FFEECC"/>
<path id="Vector_56" d="M35.2102 61.6004C35.1225 61.5973 35.0368 61.5733 34.9602 61.5304C34.856 61.4588 34.7725 61.361 34.7181 61.2469C34.6637 61.1328 34.6402 61.0064 34.6502 60.8804V60.0004C34.6532 59.7468 34.7165 59.4977 34.8347 59.2734C34.9529 59.0491 35.1228 58.8561 35.3302 58.7104L35.6902 58.5004C35.7777 58.4474 35.878 58.4194 35.9802 58.4194C36.0824 58.4194 36.1827 58.4474 36.2702 58.5004C36.3759 58.5705 36.4606 58.668 36.5152 58.7824C36.5698 58.8969 36.5923 59.0241 36.5802 59.1504V60.0304C36.5772 60.2839 36.5139 60.5331 36.3957 60.7574C36.2775 60.9816 36.1076 61.1746 35.9002 61.3204L35.5402 61.5304C35.4375 61.5803 35.3243 61.6043 35.2102 61.6004ZM36.0202 58.8204C35.9808 58.8106 35.9396 58.8106 35.9002 58.8204L35.5402 59.0304C35.3944 59.1353 35.2756 59.2735 35.1939 59.4335C35.1122 59.5935 35.0697 59.7707 35.0702 59.9504V60.8404C35.0638 60.8923 35.0686 60.945 35.0841 60.995C35.0996 61.045 35.1255 61.0911 35.1602 61.1304C35.2202 61.1304 35.3002 61.1304 35.3402 61.1304L35.6902 60.9204C35.8369 60.8133 35.9567 60.6734 36.04 60.512C36.1233 60.3506 36.1679 60.172 36.1702 59.9904V59.1104C36.1766 59.0576 36.171 59.0041 36.1537 58.9538C36.1363 58.9036 36.1078 58.8579 36.0702 58.8204H36.0202Z" fill="#16110D"/>
<path id="Vector_57" d="M38.0298 60.6602L37.6699 60.8701C37.3499 61.0501 37.0898 60.8701 37.0898 60.4301V59.5402C37.0937 59.3242 37.1482 59.1122 37.2489 58.9211C37.3497 58.7301 37.4938 58.5653 37.6699 58.4402L38.0298 58.2302C38.3498 58.0402 38.6099 58.2302 38.6099 58.6702V59.5501C38.606 59.7675 38.5516 59.9809 38.4509 60.1736C38.3502 60.3663 38.2061 60.5329 38.0298 60.6602Z" fill="#FFEECC"/>
<path id="Vector_58" d="M37.44 60.32C37.3523 60.3169 37.2665 60.2929 37.19 60.25C37.0876 60.1772 37.0061 60.0789 36.9535 59.9649C36.9008 59.8509 36.879 59.7251 36.89 59.6V58.72C36.8888 58.4657 36.9502 58.215 37.0688 57.99C37.1874 57.7651 37.3595 57.5727 37.57 57.43L37.92 57.22C38.009 57.1661 38.111 57.1377 38.215 57.1377C38.319 57.1377 38.421 57.1661 38.51 57.22C38.6123 57.2927 38.6939 57.391 38.7465 57.505C38.7991 57.6191 38.821 57.7449 38.81 57.87V58.76C38.8095 59.0126 38.7473 59.2613 38.6288 59.4843C38.5103 59.7074 38.339 59.8982 38.13 60.04L37.78 60.25C37.6734 60.2989 37.5572 60.3228 37.44 60.32ZM38.26 57.54C38.2174 57.5285 38.1726 57.5285 38.13 57.54L37.77 57.75C37.6251 57.8581 37.5073 57.9984 37.4257 58.1598C37.3442 58.3211 37.3012 58.4992 37.3 58.68V59.56C37.3 59.73 37.35 59.83 37.4 59.85C37.45 59.87 37.54 59.85 37.57 59.85L37.93 59.64C38.0724 59.5318 38.1887 59.3929 38.27 59.2336C38.3514 59.0744 38.3958 58.8988 38.4 58.72V57.83C38.4 57.66 38.35 57.57 38.3 57.54H38.26Z" fill="#16110D"/>
<path id="Vector_59" d="M40.2 59.4001L39.85 59.6001C39.53 59.7901 39.27 59.6001 39.27 59.1701V58.2801C39.2739 58.0627 39.3283 57.8493 39.429 57.6566C39.5296 57.4639 39.6738 57.2974 39.85 57.1701L40.21 56.9701C40.53 56.7801 40.79 56.9701 40.79 57.4001V58.2901C40.785 58.5083 40.729 58.7223 40.6266 58.915C40.5241 59.1078 40.3781 59.2739 40.2 59.4001Z" fill="#FFEECC"/>
<path id="Vector_60" d="M39.6199 59.0503C39.5298 59.0508 39.4408 59.0303 39.3599 58.9903C39.2576 58.9176 39.176 58.8193 39.1234 58.7053C39.0708 58.5912 39.0489 58.4654 39.0599 58.3403V57.4503C39.0637 57.1984 39.1273 56.9509 39.2456 56.7284C39.3638 56.5058 39.5333 56.3145 39.7399 56.1703L40.0999 55.9603C40.1874 55.9074 40.2877 55.8794 40.3899 55.8794C40.4922 55.8794 40.5925 55.9074 40.6799 55.9603C40.7841 56.0319 40.8676 56.1297 40.922 56.2438C40.9764 56.3579 40.9999 56.4843 40.9899 56.6104V57.4903C40.9869 57.7438 40.9236 57.993 40.8054 58.2173C40.6872 58.4416 40.5174 58.6346 40.3099 58.7803L39.9499 58.9903C39.8463 59.0364 39.7331 59.057 39.6199 59.0503ZM40.4299 56.2803C40.3874 56.2689 40.3425 56.2689 40.2999 56.2803L39.9499 56.4903C39.8034 56.5953 39.6836 56.7333 39.6003 56.8931C39.5169 57.0529 39.4722 57.2301 39.4699 57.4103V58.3003C39.4642 58.353 39.4702 58.4064 39.4875 58.4565C39.5048 58.5066 39.5329 58.5523 39.5699 58.5903C39.6199 58.5903 39.6999 58.5903 39.7399 58.5903L40.0999 58.3803C40.2448 58.2722 40.3626 58.1319 40.4442 57.9706C40.5257 57.8092 40.5688 57.6311 40.5699 57.4503V56.5703C40.5699 56.3903 40.5699 56.3003 40.4799 56.2803H40.4299Z" fill="#16110D"/>
<path id="Vector_61" d="M42.44 58.0903L42.08 58.3003C41.76 58.4803 41.5 58.3003 41.5 57.8603V56.9703C41.5039 56.7544 41.5584 56.5424 41.6591 56.3513C41.7598 56.1603 41.904 55.9955 42.08 55.8703L42.43 55.6603C42.75 55.4703 43.01 55.6603 43.01 56.1003V56.9803C43.0105 57.1974 42.959 57.4114 42.8598 57.6046C42.7607 57.7977 42.6167 57.9642 42.44 58.0903Z" fill="#FFEECC"/>
<path id="Vector_62" d="M41.8503 57.75C41.7619 57.7517 41.675 57.7274 41.6003 57.68C41.4961 57.6084 41.4126 57.5106 41.3582 57.3965C41.3038 57.2824 41.2804 57.156 41.2903 57.03V56.19C41.2933 55.9365 41.3566 55.6873 41.4748 55.463C41.593 55.2388 41.7629 55.0458 41.9703 54.9L42.3303 54.69C42.4185 54.6391 42.5185 54.6123 42.6203 54.6123C42.7221 54.6123 42.8221 54.6391 42.9103 54.69C43.016 54.7601 43.1007 54.8576 43.1553 54.9721C43.2099 55.0866 43.2324 55.2137 43.2203 55.34V56.19C43.2165 56.442 43.1529 56.6894 43.0346 56.912C42.9164 57.1345 42.747 57.3258 42.5403 57.47L42.1803 57.68C42.0777 57.7299 41.9644 57.7539 41.8503 57.75ZM42.6603 54.97C42.6209 54.9603 42.5797 54.9603 42.5403 54.97L42.1803 55.18C42.0337 55.2865 41.9146 55.4264 41.8328 55.5882C41.7511 55.7499 41.7091 55.9288 41.7103 56.11V56.99C41.7103 57.17 41.7603 57.26 41.8003 57.28C41.828 57.2949 41.8589 57.3027 41.8903 57.3027C41.9217 57.3027 41.9527 57.2949 41.9803 57.28L42.3303 57.07C42.4768 56.965 42.5966 56.827 42.68 56.6672C42.7634 56.5074 42.808 56.3302 42.8103 56.15V55.26C42.816 55.2073 42.81 55.154 42.7928 55.1038C42.7755 55.0537 42.7473 55.008 42.7103 54.97H42.6603Z" fill="#16110D"/>
<path id="Vector_63" d="M44.6099 56.8303L44.2499 57.0303C43.9299 57.2203 43.6699 57.0303 43.6699 56.6003V55.7103C43.6738 55.4929 43.7282 55.2794 43.8289 55.0868C43.9296 54.8941 44.0737 54.7276 44.2499 54.6003L44.6099 54.4003C44.9299 54.2103 45.1799 54.4003 45.1899 54.8303V55.7203C45.186 55.9376 45.1316 56.1511 45.0309 56.3437C44.9303 56.5364 44.7861 56.703 44.6099 56.8303Z" fill="#FFEECC"/>
<path id="Vector_64" d="M44.0201 56.4804C43.9331 56.4808 43.8474 56.4602 43.7701 56.4204C43.6677 56.3476 43.5862 56.2493 43.5336 56.1353C43.4809 56.0213 43.459 55.8955 43.4701 55.7704V54.8804C43.4739 54.6284 43.5375 54.3809 43.6557 54.1584C43.774 53.9358 43.9434 53.7446 44.1501 53.6004L44.5101 53.3904C44.5991 53.3366 44.7011 53.3081 44.8051 53.3081C44.9091 53.3081 45.0111 53.3366 45.1001 53.3904C45.2024 53.4632 45.284 53.5614 45.3366 53.6754C45.3892 53.7895 45.4111 53.9153 45.4001 54.0404V54.9204C45.3987 55.1742 45.3362 55.424 45.2178 55.6485C45.0994 55.873 44.9287 56.0658 44.7201 56.2104L44.3701 56.4204C44.2599 56.4681 44.1399 56.4887 44.0201 56.4804ZM44.8301 53.7104C44.7907 53.7006 44.7495 53.7006 44.7101 53.7104L44.3501 53.9204C44.206 54.027 44.0885 54.1655 44.007 54.3252C43.9254 54.4848 43.882 54.6611 43.8801 54.8404V55.7304C43.8801 55.9004 43.9301 55.9904 43.9801 56.0204C44.0301 56.0504 44.1101 56.0204 44.1501 56.0204L44.5101 55.8104C44.6533 55.7006 44.7699 55.5601 44.8513 55.399C44.9327 55.238 44.9767 55.0607 44.9801 54.8804V54.0004C44.9801 53.8204 44.9301 53.7304 44.8801 53.7104H44.8301Z" fill="#16110D"/>
<path id="Vector_65" d="M46.8401 55.55L46.4902 55.76C46.1702 55.94 45.9102 55.76 45.9102 55.32V54.43C45.9148 54.2128 45.9696 53.9996 46.0702 53.8071C46.1708 53.6145 46.3145 53.4478 46.4902 53.32L46.8502 53.12C47.1702 52.93 47.4302 53.12 47.4302 53.55V54.44C47.4252 54.6582 47.3692 54.8722 47.2668 55.0649C47.1643 55.2577 47.0182 55.4238 46.8401 55.55Z" fill="#FFEECC"/>
<path id="Vector_66" d="M46.2903 55.1902C46.1994 55.1872 46.1104 55.1633 46.0303 55.1202C45.928 55.0474 45.8464 54.9492 45.7938 54.8351C45.7412 54.7211 45.7193 54.5953 45.7303 54.4702V53.5902C45.7334 53.3367 45.7966 53.0875 45.9148 52.8633C46.033 52.639 46.2029 52.446 46.4103 52.3002L46.7703 52.0902C46.8578 52.0373 46.9581 52.0093 47.0603 52.0093C47.1625 52.0093 47.2628 52.0373 47.3503 52.0902C47.4524 52.1638 47.5343 52.262 47.5884 52.3756C47.6426 52.4892 47.6673 52.6146 47.6603 52.7402V53.6202C47.6573 53.8737 47.5941 54.1229 47.4758 54.3472C47.3576 54.5715 47.1878 54.7645 46.9803 54.9102L46.6203 55.1202C46.5173 55.169 46.4043 55.193 46.2903 55.1902ZM47.1003 52.4102C47.0577 52.3988 47.0129 52.3988 46.9703 52.4102L46.6203 52.6202C46.4749 52.7263 46.356 52.8645 46.2727 53.0241C46.1895 53.1836 46.1442 53.3603 46.1403 53.5402V54.4302C46.1339 54.483 46.1395 54.5365 46.1569 54.5868C46.1742 54.637 46.2027 54.6826 46.2403 54.7202C46.2903 54.7202 46.3703 54.7202 46.4103 54.7202L46.7703 54.5102C46.9144 54.4036 47.0318 54.2651 47.1134 54.1054C47.1949 53.9458 47.2384 53.7694 47.2403 53.5902V52.7002C47.2403 52.5302 47.1903 52.4302 47.1503 52.4102H47.1003Z" fill="#16110D"/>
<path id="Vector_67" d="M49.0201 54.2899L48.6601 54.4899C48.3401 54.6799 48.0801 54.4899 48.0801 54.0599V53.1899C48.0843 52.9737 48.1378 52.7613 48.2366 52.569C48.3354 52.3766 48.4768 52.2094 48.6501 52.08L49.0101 51.8699C49.3301 51.6899 49.5901 51.8699 49.5901 52.3099V53.1899C49.5858 53.4047 49.5322 53.6157 49.4334 53.8064C49.3345 53.9972 49.1931 54.1626 49.0201 54.2899Z" fill="#FFEECC"/>
<path id="Vector_68" d="M48.4299 53.94C48.3428 53.9416 48.2567 53.921 48.1799 53.88C48.0742 53.8099 47.9895 53.7124 47.9349 53.5979C47.8803 53.4834 47.8578 53.3562 47.8699 53.23V52.34C47.8737 52.088 47.9373 51.8405 48.0555 51.618C48.1738 51.3954 48.3432 51.2042 48.5499 51.06L48.9099 50.85C48.9973 50.797 49.0976 50.769 49.1999 50.769C49.3021 50.769 49.4024 50.797 49.4899 50.85C49.5948 50.9185 49.6791 51.0142 49.7337 51.127C49.7883 51.2397 49.8112 51.3652 49.7999 51.49V52.38C49.7969 52.6335 49.7336 52.8826 49.6154 53.1069C49.4972 53.3312 49.3273 53.5242 49.1199 53.67L48.7599 53.87C48.6588 53.9244 48.5443 53.9487 48.4299 53.94ZM49.2899 51.19C49.2505 51.1802 49.2093 51.1802 49.1699 51.19L48.8099 51.39C48.6643 51.4982 48.5454 51.6382 48.4622 51.7994C48.379 51.9606 48.3337 52.1386 48.3299 52.32V53.19C48.3235 53.2419 48.3283 53.2946 48.3438 53.3446C48.3593 53.3946 48.3852 53.4408 48.4199 53.48C48.4799 53.48 48.5599 53.48 48.5999 53.48L48.9499 53.27C49.0966 53.1628 49.2164 53.0231 49.2997 52.8616C49.383 52.7002 49.4276 52.5216 49.4299 52.34V51.46C49.4299 51.28 49.4299 51.19 49.3399 51.17L49.2899 51.19Z" fill="#16110D"/>
<path id="Vector_69" d="M51.2901 53.0104L50.9301 53.2104C50.6101 53.4004 50.3501 53.2104 50.3501 52.7804V51.8904C50.354 51.6731 50.4084 51.4596 50.5091 51.267C50.6097 51.0743 50.7539 50.9077 50.9301 50.7804L51.2901 50.5804C51.6001 50.3904 51.8601 50.5804 51.8701 51.0104V51.9004C51.8662 52.1178 51.8118 52.3312 51.7112 52.5239C51.6105 52.7166 51.4663 52.8831 51.2901 53.0104Z" fill="#FFEECC"/>
<path id="Vector_70" d="M50.6602 52.6601C50.5732 52.6605 50.4875 52.6399 50.4102 52.6001C50.3078 52.5273 50.2263 52.429 50.1737 52.315C50.1211 52.201 50.0992 52.0752 50.1102 51.9501V51.0601C50.114 50.8081 50.1776 50.5606 50.2959 50.3381C50.4141 50.1155 50.5835 49.9243 50.7902 49.7801L51.1502 49.5701C51.2392 49.5162 51.3412 49.4878 51.4452 49.4878C51.5492 49.4878 51.6512 49.5162 51.7402 49.5701C51.8426 49.6428 51.9241 49.7411 51.9767 49.8551C52.0293 49.9692 52.0512 50.095 52.0402 50.2201V51.1001C52.0388 51.3539 51.9763 51.6037 51.8579 51.8282C51.7395 52.0528 51.5688 52.2455 51.3602 52.3901L51.0102 52.6001C50.9 52.6478 50.78 52.6684 50.6602 52.6601ZM51.4702 49.8901C51.4308 49.8803 51.3896 49.8803 51.3502 49.8901L50.9902 50.1001C50.8455 50.2061 50.7277 50.3446 50.6461 50.5043C50.5645 50.664 50.5214 50.8407 50.5202 51.0201V51.9101C50.5202 52.0801 50.5202 52.1701 50.6202 52.2001C50.7202 52.2301 50.7502 52.2001 50.7902 52.2001L51.1502 51.9901C51.2934 51.8803 51.41 51.7397 51.4914 51.5787C51.5728 51.4177 51.6168 51.2404 51.6202 51.0601V50.1901C51.6202 50.0101 51.5702 49.9201 51.5202 49.9001L51.4702 49.8901Z" fill="#16110D"/>
<path id="Vector_71" d="M53.4202 51.7404L53.0702 51.9504C52.7502 52.1404 52.4902 51.9504 52.4902 51.5104V50.6304C52.4941 50.413 52.5485 50.1996 52.6492 50.0069C52.7498 49.8142 52.894 49.6476 53.0702 49.5204L53.4302 49.3104C53.7502 49.1304 54.0102 49.3104 54.0102 49.7504V50.6404C54.0052 50.8572 53.9492 51.0698 53.8467 51.2609C53.7442 51.452 53.5981 51.6163 53.4202 51.7404Z" fill="#FFEECC"/>
<path id="Vector_72" d="M52.8402 51.4003C52.7487 51.4022 52.6585 51.378 52.5803 51.3303C52.478 51.2599 52.3962 51.1634 52.3435 51.051C52.2908 50.9385 52.269 50.814 52.2802 50.6903V49.8003C52.2815 49.5478 52.3441 49.2995 52.4626 49.0765C52.581 48.8536 52.7518 48.6627 52.9603 48.5203L53.3102 48.3103C53.3992 48.2565 53.5012 48.228 53.6052 48.228C53.7092 48.228 53.8112 48.2565 53.9002 48.3103C54.0025 48.3808 54.0842 48.4772 54.137 48.5897C54.1897 48.7021 54.2115 48.8266 54.2002 48.9503V49.8403C54.1956 50.0935 54.1317 50.3421 54.0136 50.5661C53.8955 50.7902 53.7265 50.9834 53.5203 51.1303L53.1602 51.3303C53.0616 51.3815 52.9512 51.4056 52.8402 51.4003ZM53.6502 48.6203C53.603 48.6243 53.558 48.6417 53.5203 48.6703L53.1602 48.8703C53.0176 48.9805 52.9013 49.1212 52.82 49.2821C52.7387 49.443 52.6943 49.6201 52.6902 49.8003V50.6903C52.6845 50.743 52.6905 50.7964 52.7078 50.8465C52.7251 50.8966 52.7532 50.9423 52.7902 50.9803C52.8402 50.9803 52.9203 50.9803 52.9603 50.9803L53.3202 50.7703C53.4645 50.6616 53.582 50.5212 53.6635 50.36C53.745 50.1987 53.7883 50.021 53.7902 49.8403V48.9503C53.7902 48.7803 53.7402 48.6903 53.6902 48.6603L53.6502 48.6203Z" fill="#16110D"/>
<path id="Vector_73" d="M55.6602 50.4601L55.3002 50.6701C54.9802 50.8601 54.7202 50.6701 54.7202 50.2401V49.3501C54.7244 49.1339 54.778 48.9215 54.8768 48.7291C54.9756 48.5368 55.117 48.3695 55.2902 48.2401L55.6502 48.0301C55.9702 47.8501 56.2302 48.0301 56.2302 48.4701V49.3601C56.2283 49.5753 56.1757 49.7871 56.0767 49.9782C55.9776 50.1693 55.835 50.3344 55.6602 50.4601Z" fill="#FFEECC"/>
<path id="Vector_74" d="M55.07 50.1201C54.9829 50.1218 54.8968 50.1012 54.82 50.0602C54.7151 49.9893 54.631 49.8917 54.5765 49.7774C54.522 49.6631 54.499 49.5363 54.51 49.4102V48.5201C54.5138 48.2682 54.5774 48.0207 54.6957 47.7982C54.8139 47.5756 54.9833 47.3843 55.19 47.2401L55.55 47.0302C55.6375 46.9772 55.7377 46.9492 55.84 46.9492C55.9422 46.9492 56.0425 46.9772 56.13 47.0302C56.2349 47.0986 56.3192 47.1944 56.3738 47.3071C56.4284 47.4199 56.4513 47.5454 56.44 47.6702V48.5602C56.437 48.8137 56.3737 49.0629 56.2555 49.2871C56.1373 49.5114 55.9674 49.7044 55.76 49.8502L55.4 50.0501C55.2989 50.1046 55.1844 50.1289 55.07 50.1201ZM55.88 47.3401C55.8354 47.3422 55.7929 47.3599 55.76 47.3902L55.4 47.5901C55.2544 47.6983 55.1355 47.8384 55.0523 47.9995C54.9691 48.1607 54.9238 48.3388 54.92 48.5201V49.4102C54.9136 49.4621 54.9184 49.5148 54.9339 49.5648C54.9494 49.6148 54.9753 49.6609 55.01 49.7002C55.01 49.7002 55.14 49.7002 55.19 49.7002L55.54 49.4901C55.6867 49.383 55.8065 49.2432 55.8898 49.0818C55.9731 48.9204 56.0177 48.7418 56.02 48.5602V47.6702C56.02 47.5002 55.97 47.4102 55.93 47.3902L55.88 47.3401Z" fill="#16110D"/>
<path id="Vector_75" d="M57.8301 49.1901L57.4701 49.4001C57.1501 49.5801 56.8901 49.4 56.8901 48.96V48.0801C56.8924 47.8624 56.9462 47.6484 57.047 47.4555C57.1478 47.2626 57.2928 47.0962 57.4701 46.9701L57.8201 46.7601C58.1401 46.5801 58.4001 46.7601 58.4001 47.2001V48.0901C58.3974 48.3051 58.3445 48.5166 58.2455 48.7076C58.1465 48.8986 58.0043 49.0638 57.8301 49.1901Z" fill="#FFEECC"/>
<path id="Vector_76" d="M57.2902 48.8604C57.2018 48.8621 57.1148 48.8378 57.0402 48.7904C56.9379 48.7199 56.8562 48.6235 56.8035 48.511C56.7507 48.3986 56.7289 48.2741 56.7402 48.1504V47.2604C56.7432 47.0069 56.8064 46.7577 56.9247 46.5334C57.0429 46.3091 57.2127 46.1162 57.4202 45.9704L57.7802 45.7704C57.8702 45.7196 57.9718 45.6929 58.0752 45.6929C58.1786 45.6929 58.2802 45.7196 58.3702 45.7704C58.4718 45.8438 58.5528 45.9422 58.6053 46.0561C58.6579 46.1699 58.6802 46.2954 58.6702 46.4204V47.3104C58.6689 47.5628 58.6063 47.8112 58.4879 48.0342C58.3694 48.2571 58.1987 48.448 57.9902 48.5904L57.6402 48.8004C57.5312 48.852 57.4101 48.8728 57.2902 48.8604ZM58.1002 46.0804C58.0604 46.0747 58.02 46.0747 57.9802 46.0804L57.6202 46.2904C57.4759 46.3991 57.3585 46.5395 57.277 46.7007C57.1955 46.862 57.1521 47.0397 57.1502 47.2204V48.1904C57.1502 48.3604 57.2002 48.4504 57.2502 48.4704C57.276 48.4853 57.3054 48.4932 57.3352 48.4932C57.365 48.4932 57.3943 48.4853 57.4202 48.4704L57.7802 48.2704C57.9229 48.1602 58.0391 48.0195 58.1204 47.8586C58.2017 47.6977 58.2461 47.5206 58.2502 47.3404V46.4504C58.2502 46.2804 58.2002 46.1904 58.1502 46.1604L58.1002 46.0804Z" fill="#16110D"/>
<path id="Vector_77" d="M60.0599 47.9201L59.7099 48.1301C59.3899 48.3201 59.1299 48.1301 59.1299 47.6901V46.8101C59.1322 46.5924 59.1859 46.3784 59.2867 46.1855C59.3875 45.9926 59.5325 45.8262 59.7099 45.7001L60.0699 45.49C60.3899 45.31 60.6499 45.4901 60.6499 45.9301V46.8201C60.6449 47.0369 60.5889 47.2495 60.4864 47.4406C60.3839 47.6317 60.2377 47.796 60.0599 47.9201Z" fill="#FFEECC"/>
<path id="Vector_78" d="M59.4799 47.58C59.3883 47.582 59.2981 47.5577 59.2199 47.51C59.1176 47.4395 59.0359 47.3431 58.9832 47.2307C58.9305 47.1182 58.9086 46.9937 58.9199 46.87V45.98C58.9245 45.7268 58.9884 45.4782 59.1065 45.2542C59.2246 45.0301 59.3936 44.8369 59.5999 44.69L59.9499 44.49C60.0389 44.4362 60.1409 44.4077 60.2449 44.4077C60.3489 44.4077 60.4509 44.4362 60.5399 44.49C60.6422 44.5605 60.7239 44.6569 60.7766 44.7693C60.8293 44.8818 60.8511 45.0063 60.8399 45.13V46.02C60.8352 46.2732 60.7713 46.5218 60.6532 46.7458C60.5351 46.9699 60.3662 47.1631 60.1599 47.31L59.7999 47.51C59.7013 47.5612 59.5909 47.5853 59.4799 47.58ZM60.2899 44.8C60.2468 44.7929 60.2029 44.7929 60.1599 44.8L59.7999 45.01C59.6572 45.1202 59.541 45.2609 59.4596 45.4218C59.3783 45.5827 59.334 45.7598 59.3299 45.94V46.83C59.3242 46.8827 59.3301 46.936 59.3474 46.9862C59.3647 47.0363 59.3929 47.082 59.4299 47.12C59.4848 47.1399 59.5449 47.1399 59.5999 47.12L59.9599 46.91C60.1042 46.8013 60.2216 46.6609 60.3031 46.4997C60.3846 46.3385 60.428 46.1607 60.4299 45.98V45.09C60.4299 44.92 60.3799 44.83 60.3299 44.8H60.2899Z" fill="#16110D"/>
<path id="Vector_79" d="M62.2901 46.6602L61.9301 46.8701C61.6101 47.0501 61.3501 46.8701 61.3501 46.4301V45.5402C61.352 45.3249 61.4046 45.1131 61.5037 44.922C61.6027 44.7309 61.7454 44.5658 61.9201 44.4402L62.2801 44.2302C62.6001 44.0402 62.8601 44.2302 62.8601 44.6702V45.5501C62.8598 45.7671 62.8079 45.9808 62.7088 46.1738C62.6097 46.3668 62.4662 46.5335 62.2901 46.6602Z" fill="#FFEECC"/>
<path id="Vector_80" d="M61.6501 46.3203C61.5615 46.3233 61.4742 46.2988 61.4001 46.2503C61.2944 46.1802 61.2097 46.0827 61.1551 45.9682C61.1005 45.8537 61.078 45.7265 61.0901 45.6003V44.7203C61.0931 44.4668 61.1564 44.2176 61.2746 43.9933C61.3928 43.769 61.5627 43.576 61.7701 43.4303L62.1301 43.2203C62.2183 43.1694 62.3183 43.1426 62.4201 43.1426C62.5219 43.1426 62.6219 43.1694 62.7101 43.2203C62.8158 43.2904 62.9005 43.3879 62.9551 43.5023C63.0097 43.6168 63.0322 43.744 63.0201 43.8703V44.7603C63.0163 45.0123 62.9527 45.2597 62.8344 45.4823C62.7162 45.7048 62.5468 45.8961 62.3401 46.0403L61.9801 46.2503C61.8791 46.3047 61.7645 46.329 61.6501 46.3203ZM62.4601 43.5403C62.4207 43.5305 62.3795 43.5305 62.3401 43.5403L61.9801 43.7503C61.8334 43.8574 61.7136 43.9972 61.6303 44.1586C61.547 44.3201 61.5024 44.4986 61.5001 44.6803V45.5603C61.5001 45.7403 61.5001 45.8303 61.5901 45.8503C61.6159 45.8652 61.6453 45.873 61.6751 45.873C61.705 45.873 61.7343 45.8652 61.7601 45.8503L62.1201 45.6503C62.2657 45.5421 62.3846 45.4021 62.4678 45.2409C62.551 45.0797 62.5963 44.9016 62.6001 44.7203V43.8303C62.6065 43.7783 62.6017 43.7256 62.5862 43.6756C62.5707 43.6256 62.5448 43.5795 62.5101 43.5403H62.4601Z" fill="#16110D"/>
<path id="Vector_81" d="M64.4703 45.38L64.1103 45.59C63.7903 45.77 63.5303 45.59 63.5303 45.15V44.26C63.5341 44.0441 63.5886 43.832 63.6894 43.641C63.7901 43.4499 63.9343 43.2852 64.1103 43.16L64.4603 42.95C64.7803 42.77 65.0403 42.95 65.0403 43.39V44.27C65.0391 44.4868 64.9869 44.7002 64.8879 44.8931C64.7889 45.0859 64.6458 45.2528 64.4703 45.38Z" fill="#FFEECC"/>
<path id="Vector_82" d="M63.88 45.0401C63.7916 45.0418 63.7047 45.0175 63.63 44.9701C63.5277 44.8996 63.4461 44.8032 63.3933 44.6907C63.3406 44.5783 63.3188 44.4538 63.33 44.3301V43.4401C63.3331 43.1866 63.3963 42.9374 63.5145 42.7131C63.6327 42.4889 63.8026 42.2959 64.01 42.1501L64.37 41.9501C64.46 41.8993 64.5617 41.8726 64.665 41.8726C64.7684 41.8726 64.87 41.8993 64.96 41.9501C65.0617 42.0236 65.1426 42.122 65.1952 42.2358C65.2477 42.3497 65.2701 42.4751 65.26 42.6001V43.4901C65.2587 43.7425 65.1962 43.9909 65.0777 44.2139C64.9593 44.4368 64.7885 44.6277 64.58 44.7701L64.23 44.9801C64.121 45.0317 64 45.0525 63.88 45.0401ZM64.69 42.2601C64.6502 42.2544 64.6098 42.2544 64.57 42.2601L64.21 42.4701C64.0652 42.5783 63.9473 42.7185 63.8658 42.8799C63.7842 43.0412 63.7412 43.2193 63.74 43.4001V44.2901C63.74 44.4601 63.79 44.5501 63.84 44.5701C63.8659 44.585 63.8952 44.5929 63.925 44.5929C63.9549 44.5929 63.9842 44.585 64.01 44.5701L64.37 44.3701C64.5127 44.2599 64.6289 44.1192 64.7103 43.9583C64.7916 43.7974 64.8359 43.6203 64.84 43.4401V42.5501C64.84 42.3801 64.79 42.2901 64.74 42.2601H64.69Z" fill="#16110D"/>
<path id="Vector_83" d="M66.64 44.1203L66.2799 44.3303C65.9699 44.5103 65.71 44.3303 65.71 43.8903V43.0003C65.7138 42.7844 65.7683 42.5723 65.869 42.3813C65.9698 42.1902 66.1139 42.0255 66.2899 41.9003L66.6499 41.6903C66.9699 41.5003 67.2299 41.6903 67.2299 42.1203V43.0103C67.2249 43.2285 67.169 43.4425 67.0665 43.6353C66.9641 43.828 66.818 43.9941 66.64 44.1203Z" fill="#FFEECC"/>
<path id="Vector_84" d="M66.0499 43.7802C65.9624 43.7757 65.877 43.7518 65.7999 43.7102C65.6975 43.6374 65.616 43.5391 65.5634 43.4251C65.5107 43.3111 65.4888 43.1853 65.4998 43.0602V42.1902C65.5012 41.9364 65.5638 41.6866 65.6821 41.462C65.8005 41.2375 65.9712 41.0448 66.1799 40.9002L66.5298 40.6902C66.6188 40.6364 66.7209 40.6079 66.8249 40.6079C66.9289 40.6079 67.0309 40.6364 67.1198 40.6902C67.2222 40.763 67.3037 40.8612 67.3564 40.9753C67.409 41.0893 67.4309 41.2151 67.4199 41.3402V42.1902C67.4168 42.4437 67.3536 42.6929 67.2354 42.9171C67.1171 43.1414 66.9473 43.3344 66.7399 43.4802L66.3799 43.6902C66.2784 43.7455 66.1654 43.7764 66.0499 43.7802ZM66.8698 41.0002C66.8273 40.9887 66.7824 40.9887 66.7399 41.0002L66.3799 41.2102C66.2366 41.3199 66.12 41.4605 66.0386 41.6215C65.9573 41.7825 65.9132 41.9598 65.9099 42.1402V43.0202C65.9099 43.1902 65.9599 43.2902 66.0099 43.3102C66.0599 43.3302 66.1399 43.3102 66.1799 43.3102L66.5399 43.1002C66.684 42.9936 66.8014 42.855 66.8829 42.6954C66.9645 42.5358 67.0079 42.3594 67.0099 42.1802V41.2902C67.0099 41.1202 66.9599 41.0302 66.9099 41.0002H66.8698Z" fill="#16110D"/>
<path id="Vector_85" d="M68.8799 42.8403L68.52 43.0503C68.2 43.2303 67.9399 43.0503 67.9399 42.6103V41.7203C67.9419 41.5051 67.9945 41.2933 68.0935 41.1022C68.1925 40.9111 68.3352 40.746 68.5099 40.6203L68.8699 40.4103C69.1899 40.2203 69.45 40.4103 69.45 40.8503V41.7303C69.448 41.947 69.3955 42.1602 69.2965 42.3529C69.1975 42.5456 69.0549 42.7125 68.8799 42.8403Z" fill="#FFEECC"/>
<path id="Vector_86" d="M68.2902 42.5003C68.2017 42.5033 68.1144 42.4788 68.0402 42.4303C67.9345 42.3602 67.8498 42.2627 67.7952 42.1482C67.7406 42.0337 67.7182 41.9065 67.7302 41.7803V40.9003C67.7333 40.6467 67.7965 40.3976 67.9147 40.1733C68.0329 39.949 68.2028 39.7561 68.4102 39.6103L68.7702 39.4003C68.8577 39.3473 68.958 39.3193 69.0602 39.3193C69.1625 39.3193 69.2628 39.3473 69.3502 39.4003C69.4559 39.4704 69.5406 39.5679 69.5952 39.6823C69.6498 39.7968 69.6723 39.924 69.6602 40.0503V40.9403C69.6564 41.1923 69.5928 41.4397 69.4745 41.6623C69.3563 41.8848 69.1869 42.0761 68.9802 42.2203L68.6202 42.4303C68.5176 42.4802 68.4043 42.5042 68.2902 42.5003ZM69.1002 39.7203C69.0608 39.7105 69.0196 39.7105 68.9802 39.7203L68.6202 39.9303C68.4735 40.0374 68.3538 40.1772 68.2704 40.3386C68.1871 40.5 68.1426 40.6787 68.1402 40.8603V41.7403C68.1402 41.9203 68.1902 42.0103 68.2302 42.0303C68.2561 42.0452 68.2854 42.053 68.3152 42.053C68.3451 42.053 68.3744 42.0452 68.4002 42.0303L68.7602 41.8203C68.9067 41.7153 69.0265 41.5773 69.1099 41.4175C69.1933 41.2577 69.2379 41.0805 69.2402 40.9003V40.0103C69.2466 39.9583 69.2419 39.9056 69.2263 39.8556C69.2108 39.8056 69.1849 39.7595 69.1502 39.7203H69.1002Z" fill="#16110D"/>
<path id="Vector_87" d="M20.8501 72.9003C20.7448 72.9 20.6415 72.8724 20.5501 72.8203C20.4178 72.7193 20.3128 72.5867 20.2447 72.4348C20.1766 72.2829 20.1475 72.1164 20.1601 71.9503V67.8703C20.1645 67.4999 20.2577 67.1359 20.4316 66.8088C20.6056 66.4818 20.8554 66.2011 21.1601 65.9903L22.1601 65.3904C22.2688 65.3148 22.396 65.2702 22.5281 65.2614C22.6603 65.2526 22.7923 65.2799 22.9101 65.3403C23.0424 65.4414 23.1473 65.5739 23.2154 65.7259C23.2835 65.8778 23.3126 66.0443 23.3001 66.2103V70.2803C23.2948 70.6506 23.2013 71.0143 23.0274 71.3412C22.8535 71.6682 22.6042 71.949 22.3001 72.1603L21.2501 72.7703C21.1275 72.8415 20.9911 72.8858 20.8501 72.9003ZM22.6301 65.5503C22.5269 65.5525 22.4264 65.5837 22.3401 65.6404L21.2901 66.2403C21.0343 66.4292 20.8254 66.6746 20.6797 66.9572C20.5341 67.2399 20.4555 67.5524 20.4501 67.8703V71.9503C20.4354 72.064 20.4497 72.1795 20.4917 72.2862C20.5337 72.3928 20.6019 72.4871 20.6901 72.5603C20.7603 72.5998 20.8395 72.6205 20.9201 72.6205C21.0006 72.6205 21.0798 72.5998 21.1501 72.5603L22.1501 71.9503C22.4077 71.7625 22.6185 71.5176 22.7659 71.2349C22.9134 70.9521 22.9935 70.6392 23.0001 70.3203V66.1903C23.0143 66.0743 22.9989 65.9565 22.9552 65.8481C22.9114 65.7396 22.8409 65.644 22.7501 65.5703C22.7117 65.5561 22.671 65.5493 22.6301 65.5503Z" fill="#16110D"/>
<path id="Vector_88" d="M14.2901 72.2502V71.5002C14.2901 71.1102 14.0301 70.8802 13.7201 71.0402C11.5496 72.2801 9.30167 73.379 6.99009 74.3302C5.75009 74.8102 4.51009 74.9602 3.70009 74.3302C2.89009 73.7002 3.70007 72.0502 3.84007 71.7702C3.19712 72.8188 2.62905 73.9115 2.14009 75.0402C1.9894 75.3509 1.95053 75.7041 2.03007 76.0402C2.17704 76.4276 2.44074 76.7598 2.78468 76.9909C3.12862 77.222 3.53585 77.3406 3.95009 77.3302C6.07009 77.5502 11.0201 75.1402 13.1601 73.7102C13.7046 73.3803 14.1073 72.86 14.2901 72.2502Z" fill="#FFEECC"/>
<path id="Vector_89" d="M14.62 70.0099C14.5322 69.958 14.432 69.9307 14.33 69.9307C14.228 69.9307 14.1278 69.958 14.04 70.0099L13.09 70.5199L11.9 71.17L11.18 71.5499C9.91557 72.1994 8.617 72.7803 7.28999 73.2899C6.91388 73.4341 6.52568 73.5446 6.12999 73.6199H6.05998C5.729 73.6759 5.39097 73.6759 5.05998 73.6199L4.81999 73.5599C4.59432 73.5052 4.38294 73.403 4.2 73.2599C4.12555 73.1902 4.06747 73.1048 4.02998 73.0099V72.92C3.97902 72.2518 4.11769 71.5828 4.43001 70.9899L4.08998 70.7699C3.448 71.795 2.88633 72.8682 2.40999 73.9799V74.0699C2.23362 74.4301 2.19109 74.8413 2.28999 75.2299C2.45002 75.6564 2.73735 76.0233 3.11302 76.2809C3.48869 76.5385 3.93451 76.6744 4.39 76.67H4.7C7.05 76.67 11.7 74.3799 13.7 72.9999C14.2928 72.6384 14.7283 72.0673 14.92 71.3999V70.61C14.9208 70.4934 14.894 70.3783 14.8419 70.274C14.7897 70.1697 14.7137 70.0793 14.62 70.0099ZM14.5 71.36C14.3389 71.9125 13.9838 72.3883 13.5 72.7C11.45 74.07 6.50001 76.4999 4.43001 76.2899C4.05885 76.2914 3.69556 76.183 3.38591 75.9784C3.07627 75.7737 2.83411 75.482 2.68999 75.14C2.6169 74.8484 2.64876 74.5404 2.77998 74.2699L2.83 74.1799C3.08 73.6299 3.33999 73.0599 3.62999 72.4999C3.61309 72.7052 3.63341 72.9119 3.68999 73.11L3.02998 74.45L3.09999 74.5499C3.35082 74.8943 3.69915 75.1556 4.09999 75.2999L4.27998 75.36L4.36 75.1899C4.55 74.7799 4.35999 75.12 4.53999 74.83L4.92 74.0399C5.22863 74.0812 5.54136 74.0812 5.84999 74.0399L5.24001 75.3499H5.58998C7.10685 75.0432 8.57407 74.5283 9.95 73.8199H10.01L11.38 71.8999C12.11 71.5299 12.76 71.1699 13.3 70.8999L14.24 70.3799C14.2659 70.365 14.2952 70.3572 14.325 70.3572C14.3548 70.3572 14.3841 70.365 14.41 70.3799C14.4496 70.4139 14.4796 70.4576 14.4971 70.5067C14.5147 70.5558 14.5191 70.6086 14.51 70.6599L14.5 71.36Z" fill="#16110D"/>
<path id="Vector_90" d="M91.2901 20.38C90.1901 19.29 87.4501 19.83 85.2901 20.69C82.5001 21.79 67.8701 29.69 41.8101 44.13L34.8101 48.01C21.3201 55.45 15.1701 58.84 9.18013 64.31C3.39013 69.6 -0.659871 80.31 0.180129 82.73C0.346691 83.4072 0.749349 84.0028 1.31575 84.4097C1.88215 84.8167 2.57514 85.0082 3.27012 84.95C4.52029 84.8762 5.75813 84.6615 6.96013 84.31L7.96013 84.07C15.1601 82.4 36.3301 70.9899 52.2701 61.7399C56.1101 59.5099 59.3601 57.64 62.1201 56.06C69.3901 51.88 73.3901 49.58 75.8401 47.75C81.5801 43.45 89.5401 28.33 91.5301 23.09C91.9301 21.87 91.8701 20.95 91.2901 20.38ZM9.4001 64.61C15.3501 59.18 21.4901 55.79 34.9501 48.37L41.9501 44.4899C67.9501 30.0399 82.6001 22.16 85.3901 21.07C86.6559 20.5265 88.0132 20.2279 89.3901 20.19C87.4951 24.2113 85.3716 28.1211 83.0301 31.9C81.4901 32.37 79.5601 33.07 79.4801 33.67C79.0943 36.0608 78.1674 38.3319 76.7701 40.31C76.2186 40.888 75.6235 41.4229 74.9901 41.91C71.6301 44.43 65.9901 47.06 51.8401 55.25C37.6901 63.44 18.7701 74.6399 7.74013 78.5499C3.86013 79.9299 1.90011 79.95 0.970107 78.73C2.29011 74.59 5.29011 68.34 9.41011 64.61H9.4001Z" fill="#16110D"/>
<path id="Vector_91" d="M2.76987 83.3903C2.76987 84.0803 2.27987 84.3903 1.67987 84.0203C1.36234 83.8132 1.09812 83.5341 0.908722 83.2057C0.719327 82.8773 0.610073 82.5089 0.589844 82.1303C0.589844 81.4303 1.07987 81.1303 1.67987 81.5003C1.9974 81.7074 2.26159 81.9865 2.45099 82.3149C2.64038 82.6433 2.74964 83.0117 2.76987 83.3903Z" fill="#FFEECC"/>
<path id="Vector_92" d="M67.2899 51.3999C67.2638 51.3521 67.2475 51.2996 67.2419 51.2454C67.2363 51.1912 67.2416 51.1364 67.2574 51.0843C67.2732 51.0321 67.2993 50.9837 67.3341 50.9417C67.3688 50.8998 67.4117 50.8652 67.46 50.8399C69.7576 49.6289 71.9876 48.2936 74.1399 46.8399C75.2731 46.001 76.3214 45.0531 77.27 44.0099C77.3476 43.9383 77.4493 43.8984 77.555 43.8984C77.6606 43.8984 77.7623 43.9383 77.8399 44.0099C77.9251 44.0835 77.9781 44.1876 77.9875 44.2997C77.9968 44.4119 77.9618 44.5233 77.8899 44.61C76.8997 45.6851 75.8116 46.666 74.6399 47.5399C72.4516 48.9967 70.1849 50.332 67.8499 51.5399C67.757 51.5952 67.646 51.6114 67.5411 51.5852C67.4363 51.559 67.346 51.4924 67.2899 51.3999Z" fill="#126180"/>
<path id="Vector_93" d="M78.6201 43.0499C78.5413 42.9788 78.4923 42.8805 78.4831 42.7748C78.4738 42.669 78.5049 42.5637 78.5701 42.48C78.7401 42.26 78.9801 41.94 79.2101 41.6C79.2676 41.5119 79.3568 41.4493 79.4592 41.4251C79.5615 41.4009 79.6693 41.4169 79.7601 41.47C79.809 41.4987 79.8515 41.5369 79.8852 41.5825C79.9188 41.6281 79.9429 41.68 79.956 41.7351C79.9691 41.7902 79.9709 41.8474 79.9613 41.9032C79.9517 41.9591 79.9308 42.0124 79.9001 42.0599C79.6601 42.4199 79.4001 42.7599 79.2201 42.9899C79.1861 43.0352 79.143 43.073 79.0936 43.1008C79.0442 43.1285 78.9897 43.1458 78.9333 43.1514C78.8769 43.1571 78.82 43.151 78.7661 43.1335C78.7122 43.116 78.6625 43.0876 78.6201 43.0499Z" fill="#126180"/>
<path id="Vector_94" d="M33.83 66.9902C34.24 65.3602 47.47 57.9902 52.01 55.4302C52.4644 55.1755 52.9712 55.0287 53.4913 55.0009C54.0115 54.9732 54.5311 55.0653 55.01 55.2702L79.08 64.4803L110.83 73.1202C110.994 73.161 111.142 73.2486 111.257 73.3723C111.372 73.4961 111.449 73.6506 111.478 73.8171C111.506 73.9836 111.486 74.1548 111.419 74.3098C111.352 74.4649 111.241 74.5971 111.1 74.6903L108.78 76.2402C107.457 77.1223 105.874 77.5279 104.29 77.3903L41.99 71.7402C40.0918 71.5816 38.2399 71.0695 36.53 70.2303C35.05 69.5103 33.41 68.6602 33.83 66.9902Z" fill="#126180"/>
<path id="Vector_95" d="M35.8701 67.6801C36.2701 66.0501 47.0201 60.3101 51.5701 57.7701C52.0237 57.5132 52.5307 57.3651 53.0513 57.3373C53.5718 57.3095 54.0917 57.4029 54.5701 57.6101L78.7701 66.2001L109.14 73.8501C109.87 74.0301 109.77 74.2901 109.14 74.7101L107.14 76.0601C105.798 76.9485 104.192 77.3476 102.59 77.1901L43.0101 71.8101C41.1201 71.6401 40.2201 71.7401 38.5201 70.8801C37.0901 70.1901 35.4501 69.3401 35.8701 67.6801Z" fill="#FFEECC"/>
<path id="Vector_96" d="M111.69 73.78C111.665 73.5706 111.574 73.3747 111.43 73.2202C111.286 73.0657 111.097 72.9607 110.89 72.92L109.89 72.65L79.1903 64.28L55.1203 55.09C54.6124 54.8679 54.06 54.7668 53.5064 54.7945C52.9529 54.8223 52.4133 54.9782 51.9303 55.25L51.6403 55.41C43.4603 60 34.0203 65.41 33.6403 66.94C33.1803 68.79 35.0403 69.72 36.4003 70.41C38.1325 71.2702 40.0126 71.7929 41.9403 71.95L95.5103 76.81L104.23 77.6C104.45 77.6 104.66 77.6 104.88 77.6C106.303 77.5881 107.693 77.1644 108.88 76.38L111.2 74.83C111.375 74.7214 111.514 74.5643 111.601 74.3779C111.688 74.1914 111.719 73.9837 111.69 73.78ZM41.9603 71.54C40.0881 71.3855 38.2623 70.8765 36.5803 70.04C34.9203 69.21 33.6803 68.45 34.0303 67.04C34.3803 65.63 47.5103 58.19 51.8203 55.77L52.1103 55.61C52.5398 55.3664 53.0204 55.2268 53.5136 55.2025C54.0068 55.1782 54.4989 55.2698 54.9503 55.47L79.0403 64.67L104.52 71.61C103.76 72.17 101.11 74.09 99.5203 74.97C97.9303 75.85 92.4103 75.9 89.5903 75.86H89.6403L41.9603 71.54Z" fill="#16110D"/>
<path id="Vector_97" d="M80.5203 34.5302C80.3833 34.5342 80.2478 34.5007 80.1285 34.4331C80.0093 34.3656 79.9108 34.2667 79.8438 34.1471C79.7768 34.0275 79.7438 33.8919 79.7485 33.7549C79.7532 33.618 79.7953 33.4849 79.8702 33.3701C81.3802 31.0801 86.8103 27.4602 87.2603 27.2002C87.7103 26.9402 90.3402 27.6302 90.3402 27.6302L105.91 32.1302C106.017 32.1544 106.114 32.2107 106.188 32.2914C106.262 32.372 106.31 32.4733 106.325 32.5818C106.341 32.6904 106.322 32.8009 106.273 32.8989C106.224 32.9968 106.146 33.0775 106.05 33.1302L104.29 34.1902C103.523 34.6791 102.63 34.9329 101.72 34.9202L80.5203 34.5302Z" fill="#126180"/>
<path id="Vector_98" d="M81.9102 34.5801C81.4343 34.5612 80.9633 34.4771 80.5103 34.3301C82.6096 32.1306 84.9981 30.2265 87.6103 28.6701C88.2103 28.4001 90.6902 29.1101 90.6902 29.1101L103.91 32.9301C104.35 33.0601 104.98 32.9301 104.58 33.1601L102.84 34.2801C102.232 34.6967 101.491 34.8747 100.76 34.7801L81.9102 34.5801Z" fill="#FFEECC"/>
<path id="Vector_99" d="M106.5 32.7602C106.51 32.6906 106.51 32.6199 106.5 32.5502C106.486 32.4434 106.45 32.3407 106.393 32.2493C106.336 32.1578 106.26 32.0797 106.17 32.0202L105.97 31.9402L90.3999 27.4302C89.9599 27.3002 87.7599 26.6502 87.1499 27.0202C86.5399 27.3902 81.2099 30.9702 79.6999 33.2602C79.6121 33.4123 79.5659 33.5847 79.5659 33.7602C79.5659 33.9358 79.6121 34.1082 79.6999 34.2602C79.7884 34.4095 79.9142 34.5332 80.065 34.6191C80.2158 34.705 80.3863 34.7502 80.5599 34.7502L101.77 35.1703H101.86C102.782 35.1729 103.685 34.909 104.46 34.4102L106.2 33.2902C106.281 33.2409 106.351 33.1755 106.406 33.0981C106.461 33.0208 106.5 32.933 106.52 32.8402C106.518 32.8126 106.511 32.7856 106.5 32.7602ZM80.4999 34.3303C80.4003 34.3333 80.3019 34.3087 80.2154 34.2593C80.1289 34.2099 80.0578 34.1375 80.0099 34.0502C79.9565 33.9666 79.9281 33.8695 79.9281 33.7702C79.9281 33.671 79.9565 33.5738 80.0099 33.4902C81.4699 31.2602 86.7899 27.6902 87.3199 27.3702C88.3147 27.3173 89.3095 27.474 90.2399 27.8303L102.49 31.3702C101.69 31.8802 100.12 32.9202 99.3899 33.3702C98.3899 34.0702 95.3899 34.4402 94.2199 34.5702L80.4799 34.3002L80.4999 34.3303Z" fill="#16110D"/>
<path id="Vector_100" d="M74.2902 29.1902C74.2902 29.1902 81.9602 4.96017 82.8902 3.96017C84.3857 2.77948 85.9818 1.73217 87.6602 0.830196C87.7534 0.777121 87.8594 0.75047 87.9666 0.753108C88.0739 0.755747 88.1783 0.787555 88.2688 0.845149C88.3593 0.902744 88.4325 0.983918 88.4803 1.07995C88.5281 1.17598 88.5488 1.28326 88.5402 1.39019L86.6202 22.3902C86.5864 22.7706 86.4615 23.1373 86.2561 23.4593C86.0507 23.7813 85.7709 24.0491 85.4402 24.2402L75.3502 30.0202C75.3502 30.0202 74.1602 30.6302 74.2902 29.1902Z" fill="#126180"/>
<path id="Vector_101" d="M88.3999 0.630193C88.3382 0.590156 88.2708 0.559808 88.1999 0.540197C88.0976 0.50668 87.9892 0.495586 87.8823 0.507665C87.7753 0.519744 87.6722 0.554719 87.5799 0.610204C85.8814 1.52551 84.2654 2.58612 82.7499 3.78019C81.8299 4.78019 74.8999 26.6002 74.1099 29.0802V29.1302C74.1099 29.2602 74.1099 29.3902 74.1099 29.5002C74.1087 29.6391 74.1397 29.7763 74.2004 29.9013C74.2611 30.0262 74.35 30.1353 74.4599 30.2202C74.5838 30.3033 74.7308 30.3453 74.8799 30.3402C75.0954 30.3303 75.3065 30.2758 75.4999 30.1802L76.0599 29.8602L76.2999 29.7302L85.5899 24.4102C85.9486 24.2036 86.2528 23.9143 86.4772 23.5664C86.7015 23.2186 86.8396 22.8222 86.8799 22.4102L88.7899 1.41019C88.81 1.25612 88.7836 1.09958 88.7141 0.960607C88.6446 0.821637 88.5352 0.706577 88.3999 0.630193ZM86.3999 22.3602C86.3665 22.7072 86.25 23.041 86.0603 23.3334C85.8705 23.6259 85.6131 23.8683 85.3099 24.0402L75.9899 29.3802C75.8771 28.9479 75.9123 28.4902 76.0899 28.0802C76.5599 26.9102 83.5599 14.6202 87.7499 7.50019L86.3999 22.3602Z" fill="#16110D"/>
<path id="Vector_102" d="M87.2899 5.08012C87.2621 5.62674 87.1053 6.159 86.8325 6.63346C86.5596 7.10793 86.1784 7.51112 85.7199 7.8101C84.8499 8.3101 84.1499 7.91009 84.1499 6.90009C84.1785 6.35501 84.3357 5.82445 84.6085 5.35172C84.8814 4.87899 85.2622 4.4775 85.7199 4.18009C86.5699 3.67009 87.2899 4.08012 87.2899 5.08012Z" fill="#FFEECC"/>
</g>
</g>
<defs>
<clipPath id="clip0_22_2246">
<rect width="111.7" height="87.49" fill="white" transform="translate(0 0.5)"/>
</clipPath>
</defs>
</svg>
