<svg width="25" height="24" viewBox="0 0 25 24" fill="none" xmlns="http://www.w3.org/2000/svg">
<path d="M15.2419 1.08301C15.3404 1.08283 15.4381 1.10208 15.5292 1.13966C15.6203 1.17724 15.7031 1.23241 15.7729 1.30201L23.1979 8.72701C23.3385 8.86765 23.4175 9.05839 23.4175 9.25726C23.4175 9.45613 23.3385 9.64686 23.1979 9.78751C22.4779 10.5075 21.5899 10.6695 20.9434 10.6695C20.6779 10.6695 20.4409 10.6425 20.2534 10.611L15.5524 15.312C15.6761 15.8106 15.7564 16.319 15.7924 16.8315C15.8614 17.8845 15.7444 19.362 14.7124 20.394C14.5717 20.5346 14.381 20.6136 14.1821 20.6136C13.9833 20.6136 13.7925 20.5346 13.6519 20.394L9.40838 16.152L4.63538 20.925C4.34288 21.2175 2.80688 22.278 2.51438 21.9855C2.22188 21.693 3.28238 20.1555 3.57488 19.8645L8.34788 15.0915L4.10588 10.848C3.96528 10.7074 3.88629 10.5166 3.88629 10.3178C3.88629 10.1189 3.96528 9.92815 4.10588 9.78751C5.13788 8.75551 6.61538 8.63701 7.66838 8.70751C8.18087 8.74342 8.68928 8.82372 9.18788 8.94751L13.8889 4.24801C13.8496 4.01958 13.8296 3.78828 13.8289 3.55651C13.8289 2.91151 13.9909 2.02351 14.7124 1.30201C14.8529 1.16181 15.0434 1.08305 15.2419 1.08301V1.08301Z" fill="#434348"/>
</svg>
